<?xml version="1.0" encoding="UTF-8" standalone="no"?>
<!-- Created with Inkscape (http://www.inkscape.org/) -->
<svg xmlns:dc="http://purl.org/dc/elements/1.1/" xmlns:cc="http://web.resource.org/cc/" xmlns:rdf="http://www.w3.org/1999/02/22-rdf-syntax-ns#" xmlns:svg="http://www.w3.org/2000/svg" xmlns="http://www.w3.org/2000/svg" xmlns:xlink="http://www.w3.org/1999/xlink" xmlns:sodipodi="http://sodipodi.sourceforge.net/DTD/sodipodi-0.dtd" xmlns:inkscape="http://www.inkscape.org/namespaces/inkscape" id="svg2" sodipodi:version="0.32" inkscape:version="0.44+devel" width="850.76898" height="583.46997" version="1.0" sodipodi:docbase="C:\Documents and Settings\James\                  " sodipodi:docname="magpie.jpg.svg" inkscape:output_extension="org.inkscape.output.svg.inkscape" sodipodi:modified="true"><script xmlns="" id="__gaOptOutExtension"/>
  <metadata id="metadata7">
    <rdf:RDF>
      <cc:Work rdf:about="">
        <dc:format>image/svg+xml</dc:format>
        <dc:type rdf:resource="http://purl.org/dc/dcmitype/StillImage"/>
      </cc:Work>
    </rdf:RDF>
  </metadata>
  <defs id="defs5">
    <linearGradient id="linearGradient3241">
      <stop style="stop-color:#00112a;stop-opacity:1;" offset="0" id="stop3243"/>
      <stop style="stop-color:#002255;stop-opacity:1;" offset="1" id="stop3245"/>
    </linearGradient>
    <linearGradient id="linearGradient3229">
      <stop style="stop-color:#031047;stop-opacity:1;" offset="0" id="stop3231"/>
      <stop id="stop3237" offset="0.5" style="stop-color:#011a89;stop-opacity:1;"/>
      <stop style="stop-color:#001989;stop-opacity:1;" offset="0.5" id="stop3239"/>
      <stop style="stop-color:#000000;stop-opacity:1;" offset="1" id="stop3233"/>
    </linearGradient>
    <linearGradient id="linearGradient2281">
      <stop style="stop-color:#0b0f0a;stop-opacity:1;" offset="0" id="stop2283"/>
      <stop id="stop2291" offset="0.5" style="stop-color:#60751f;stop-opacity:1;"/>
      <stop style="stop-color:#82713c;stop-opacity:1;" offset="0.5" id="stop2295"/>
      <stop style="stop-color:#a56d5a;stop-opacity:1;" offset="1" id="stop2285"/>
    </linearGradient>
    <filter inkscape:collect="always" x="-0.15876754" width="1.317535" y="-0.15454246" height="1.3090849" id="filter4232">
      <feGaussianBlur inkscape:collect="always" stdDeviation="0.12226315" id="feGaussianBlur4234"/>
    </filter>
    <linearGradient inkscape:collect="always" xlink:href="#linearGradient2281" id="linearGradient2287" x1="1001.8597" y1="301.78027" x2="1329.4978" y2="515.15747" gradientUnits="userSpaceOnUse"/>
    <linearGradient inkscape:collect="always" xlink:href="#linearGradient3229" id="linearGradient3235" x1="620.4007" y1="225.94719" x2="1024.744" y2="275.24741" gradientUnits="userSpaceOnUse"/>
    <linearGradient inkscape:collect="always" xlink:href="#linearGradient3241" id="linearGradient3247" x1="1386.5288" y1="550.52588" x2="1033.9712" y2="319.87051" gradientUnits="userSpaceOnUse"/>
  </defs>
  <sodipodi:namedview inkscape:window-height="606" inkscape:window-width="742" inkscape:pageshadow="2" inkscape:pageopacity="0.0" guidetolerance="10.0" gridtolerance="10.0" objecttolerance="10.0" borderopacity="1.0" bordercolor="#666666" pagecolor="#ffffff" id="base" inkscape:zoom="0.64613437" inkscape:cx="425.38449" inkscape:cy="291.73499" inkscape:window-x="144" inkscape:window-y="130" inkscape:current-layer="layer2" showguides="true" inkscape:guide-bbox="true"/>
  <g inkscape:groupmode="layer" id="layer1" inkscape:label="im" transform="translate(-551.31645,15.690449)"/>
  <g inkscape:groupmode="layer" id="layer2" inkscape:label="trace" transform="translate(-551.31645,15.690449)">
    <g inkscape:transform-center-x="-101.22641" inkscape:transform-center-y="-159.34619" id="g3215" transform="matrix(2.5259523,0.9032692,-0.6126551,1.7132632,-639.86189,-713.94156)">
      <path sodipodi:nodetypes="ccscc" id="path3217" d="M 648.37257,298.97872 C 651.7251,297.42895 659.54198,301.27298 658.6929,304.05625 C 656.64197,302.05881 654.21638,302.1099 653.23836,302.55513 C 651.90449,303.16235 651.76402,304.52824 651.76402,304.52824 L 648.37257,298.97872 z " style="opacity:1;fill:#000000;fill-opacity:1;fill-rule:nonzero;stroke:none;stroke-width:3.5999999;stroke-linecap:round;stroke-miterlimit:4;stroke-dasharray:none;stroke-opacity:1"/>
      <path sodipodi:nodetypes="cccc" id="path3219" d="M 628.78893,337.15505 C 632.25337,338.26447 630.54294,343.07252 630.54294,343.07252 C 633.22418,340.87298 636.41949,338.22644 636.27338,335.51504 L 628.78893,337.15505 z " style="opacity:1;fill:#000000;fill-opacity:1;fill-rule:nonzero;stroke:none;stroke-width:3.5999999;stroke-linecap:round;stroke-miterlimit:4;stroke-dasharray:none;stroke-opacity:1"/>
      <path sodipodi:nodetypes="ccccc" id="path3221" d="M 605.76405,324.67368 C 603.32143,328.10898 601.89089,333.71002 604.09022,336.28893 C 604.77143,333.59324 605.91002,332.42543 607.27244,330.85862 C 608.63486,329.29182 610.12935,329.6945 610.12935,329.6945 C 608.67425,328.02089 607.09667,326.18579 605.76405,324.67368 z " style="opacity:1;fill:#000000;fill-opacity:1;fill-rule:nonzero;stroke:none;stroke-width:3.5999999;stroke-linecap:round;stroke-miterlimit:4;stroke-dasharray:none;stroke-opacity:1"/>
      <path sodipodi:nodetypes="cccc" id="path3223" d="M 608.02523,309.63551 C 605.37825,310.20238 602.39175,310.61219 603.40274,314.15103 C 605.51643,312.94826 607.60093,313.07034 610.75926,314.10292 L 608.02523,309.63551 z " style="opacity:1;fill:#000000;fill-opacity:1;fill-rule:nonzero;stroke:none;stroke-width:3.5999999;stroke-linecap:round;stroke-miterlimit:4;stroke-dasharray:none;stroke-opacity:1"/>
      <path id="path3225" d="M 658.89697,252.56505 L 634.83917,307.16807 L 649.42642,298.18052 L 652.62386,304.71378 C 652.62386,304.71378 638.08846,310.01989 635.84161,313.66677 C 633.59476,317.31364 636.70579,335.92824 636.70579,335.92824 L 628.63441,337.76032 C 628.63441,337.76032 631.10594,321.9284 629.61956,321.46174 C 628.13319,320.99508 608.86212,330.70855 608.86212,330.70855 C 608.86212,330.70855 602.6055,326.12835 606.70168,323.25925 C 610.79787,320.39015 622.10126,320.73582 622.96543,318.33338 C 623.8296,315.93094 607.25476,313.5285 607.25476,313.5285 C 607.25476,313.5285 606.59798,308.72361 612.04228,307.42733 C 617.48657,306.13105 623.57035,313.82232 625.97275,312.26678 C 628.37516,310.71124 646.57465,272.58329 644.37965,270.52652 C 642.18465,268.46975 641.87742,263.07983 641.87742,263.07983 L 655.38922,261.22786 L 658.89697,252.56505 z " style="opacity:1;fill:#353340;fill-opacity:1;fill-rule:nonzero;stroke:none;stroke-width:3.5999999;stroke-linecap:round;stroke-miterlimit:4;stroke-dasharray:none;stroke-opacity:1" sodipodi:nodetypes="ccccsccscsscsssccc"/>
    </g>
    <path id="path3227" d="M 815.95733,300.39543 L 820.69899,327.96773 L 849.76358,330.16297 L 883.04297,307.06898 L 821.05022,286.52147 L 815.95733,300.39543 z " style="opacity:1;fill:#000000;fill-opacity:1;fill-rule:nonzero;stroke:none;stroke-width:2;stroke-linecap:round;stroke-miterlimit:4;stroke-dasharray:none;stroke-opacity:1"/>
    <g transform="matrix(2.5259523,0.9032692,-0.6126551,1.7132632,-723.93166,-673.83081)" id="g3201" inkscape:transform-center-y="-159.34619" inkscape:transform-center-x="-101.22641">
      <path style="opacity:1;fill:#000000;fill-opacity:1;fill-rule:nonzero;stroke:none;stroke-width:3.5999999;stroke-linecap:round;stroke-miterlimit:4;stroke-dasharray:none;stroke-opacity:1" d="M 648.37257,298.97872 C 651.7251,297.42895 659.54198,301.27298 658.6929,304.05625 C 656.64197,302.05881 654.21638,302.1099 653.23836,302.55513 C 651.90449,303.16235 651.76402,304.52824 651.76402,304.52824 L 648.37257,298.97872 z " id="path3203" sodipodi:nodetypes="ccscc"/>
      <path style="opacity:1;fill:#000000;fill-opacity:1;fill-rule:nonzero;stroke:none;stroke-width:3.5999999;stroke-linecap:round;stroke-miterlimit:4;stroke-dasharray:none;stroke-opacity:1" d="M 628.78893,337.15505 C 632.25337,338.26447 630.54294,343.07252 630.54294,343.07252 C 633.22418,340.87298 636.41949,338.22644 636.27338,335.51504 L 628.78893,337.15505 z " id="path3205" sodipodi:nodetypes="cccc"/>
      <path style="opacity:1;fill:#000000;fill-opacity:1;fill-rule:nonzero;stroke:none;stroke-width:3.5999999;stroke-linecap:round;stroke-miterlimit:4;stroke-dasharray:none;stroke-opacity:1" d="M 605.76405,324.67368 C 603.32143,328.10898 601.89089,333.71002 604.09022,336.28893 C 604.77143,333.59324 605.91002,332.42543 607.27244,330.85862 C 608.63486,329.29182 610.12935,329.6945 610.12935,329.6945 C 608.67425,328.02089 607.09667,326.18579 605.76405,324.67368 z " id="path3207" sodipodi:nodetypes="ccccc"/>
      <path style="opacity:1;fill:#000000;fill-opacity:1;fill-rule:nonzero;stroke:none;stroke-width:3.5999999;stroke-linecap:round;stroke-miterlimit:4;stroke-dasharray:none;stroke-opacity:1" d="M 608.02523,309.63551 C 605.37825,310.20238 602.39175,310.61219 603.40274,314.15103 C 605.51643,312.94826 607.60093,313.07034 610.75926,314.10292 L 608.02523,309.63551 z " id="path3209" sodipodi:nodetypes="cccc"/>
      <path sodipodi:nodetypes="ccccsccscsscsssccc" style="opacity:1;fill:#353340;fill-opacity:1;fill-rule:nonzero;stroke:none;stroke-width:3.5999999;stroke-linecap:round;stroke-miterlimit:4;stroke-dasharray:none;stroke-opacity:1" d="M 658.89697,252.56505 L 634.83917,307.16807 L 649.42642,298.18052 L 652.62386,304.71378 C 652.62386,304.71378 638.08846,310.01989 635.84161,313.66677 C 633.59476,317.31364 636.70579,335.92824 636.70579,335.92824 L 628.63441,337.76032 C 628.63441,337.76032 631.10594,321.9284 629.61956,321.46174 C 628.13319,320.99508 608.86212,330.70855 608.86212,330.70855 C 608.86212,330.70855 602.6055,326.12835 606.70168,323.25925 C 610.79787,320.39015 622.10126,320.73582 622.96543,318.33338 C 623.8296,315.93094 607.25476,313.5285 607.25476,313.5285 C 607.25476,313.5285 606.59798,308.72361 612.04228,307.42733 C 617.48657,306.13105 623.57035,313.82232 625.97275,312.26678 C 628.37516,310.71124 646.57465,272.58329 644.37965,270.52652 C 642.18465,268.46975 641.87742,263.07983 641.87742,263.07983 L 655.38922,261.22786 L 658.89697,252.56505 z " id="path3211"/>
    </g>
    <path style="opacity:1;fill:url(#linearGradient3247);fill-opacity:1;fill-rule:nonzero;stroke:none;stroke-width:3.5999999;stroke-linecap:round;stroke-miterlimit:4;stroke-dasharray:none;stroke-opacity:1" d="M 1054.7666,285.726 C 1054.7666,285.726 1180.4075,350.99726 1187.2584,358.67867 C 1194.1093,366.36008 1203.1608,381.5153 1203.1608,381.5153 C 1203.1608,381.5153 1316.6362,454.50948 1320.1655,460.61309 C 1323.6947,466.7167 1326.352,475.14549 1326.352,475.14549 L 1351.0152,487.85096 C 1351.0152,487.85096 1402.0854,531.40665 1402.0854,540.95652 C 1402.0854,550.50638 1392.4941,553.63565 1392.4941,553.63565 C 1392.4941,553.63565 1399.8017,566.05048 1389.6292,567.71132 C 1379.4567,569.37217 1321.4941,540.14128 1321.4941,540.14128 L 1270.507,514.81338 L 1220.9731,489.23635 L 1185.307,473.70744 L 1147.8971,458.38613 C 1123.4358,472.81922 1005.1293,356.17862 936.92171,296.72911 L 1058.203,288.38336 L 1054.7666,285.726 z " id="path2277" sodipodi:nodetypes="cscsccscscccccccc"/>
    <path style="opacity:1;fill:#333333;fill-opacity:1;fill-rule:nonzero;stroke:none;stroke-width:3.5999999;stroke-linecap:round;stroke-miterlimit:4;stroke-dasharray:none;stroke-opacity:1" d="M 749.91265,10.799166 C 781.26025,13.49932 827.97433,30.863721 830.01588,43.991296 C 832.05742,57.118871 825.42789,45.923113 825.42789,45.923113 C 825.42789,45.923113 805.47343,50.225796 796.8682,50.53313 C 788.26297,50.840465 759.98866,53.277189 751.66881,54.111382 C 743.34897,54.945576 713.97705,52.66252 713.97705,52.66252 L 749.91265,10.799166 z " id="path3185" sodipodi:nodetypes="cscsscc"/>
    <path style="opacity:1;fill:#000000;fill-opacity:1;fill-rule:nonzero;stroke:none;stroke-width:2;stroke-linecap:round;stroke-miterlimit:4;stroke-dasharray:none;stroke-opacity:1" d="M 731.88756,340.50618 L 736.62922,368.07848 L 765.69381,370.27372 L 798.9732,347.17973 L 736.98045,326.63222 L 731.88756,340.50618 z " id="path3213"/>
    <path style="opacity:1;fill:#b3b3b3;fill-opacity:1;fill-rule:nonzero;stroke:none;stroke-width:3.5999999;stroke-linecap:round;stroke-miterlimit:4;stroke-dasharray:none;stroke-opacity:1" d="M 575.52691,246.40615 C 630.98193,309.28753 747.06149,349.2346 776.66883,350.17453 C 806.27617,351.11446 898.57587,307.40767 898.57587,307.40767 L 734.46662,284.28537 L 582.2943,202.41738 L 564.5299,198.93964 L 575.52691,246.40615 z " id="path2297"/>
    <path style="opacity:1;fill:#000000;fill-opacity:1;fill-rule:nonzero;stroke:none;stroke-width:3.5999999;stroke-linecap:round;stroke-miterlimit:4;stroke-dasharray:none;stroke-opacity:1" d="M 891.20086,182.64235 L 961.53654,221.83831 L 1017.6722,258.16932 L 1042.8751,273.65671 L 946.79677,256.30087 L 872.14297,212.20541 L 822.77513,201.86664 L 834.44238,173.00944 L 891.20086,182.64235 z " id="path2273"/>
    <path style="opacity:1;fill:#ececec;fill-opacity:1;fill-rule:nonzero;stroke:none;stroke-width:3.5999999;stroke-linecap:round;stroke-miterlimit:4;stroke-dasharray:none;stroke-opacity:1" d="M 840.85156,150.67106 L 870.04045,169.27254 L 868.5042,171.88837 C 868.5042,171.88837 892.37846,180.56629 885.90127,190.36528 C 879.42408,200.16427 864.18607,196.21976 852.85098,192.93959 C 841.51589,189.65942 829.80712,193.89458 829.80712,193.89458 L 812.28548,189.03661 L 826.15332,175.79136 L 840.85156,150.67106 z " id="path2271"/>
    <path style="opacity:0.75000006;fill:url(#linearGradient2287);fill-opacity:1;fill-rule:nonzero;stroke:none;stroke-width:3.5999999;stroke-linecap:round;stroke-miterlimit:4;stroke-dasharray:none;stroke-opacity:1" d="M 1052.5406,287.587 L 1176.5861,359.6975 C 1206.773,403.28913 1268.1055,428.67885 1313.8131,463.05919 C 1327.0975,474.04157 1311.3866,481.40574 1353.7457,496.01621 C 1368.8102,517.61607 1371.1936,527.58464 1346.9363,511.25448 L 1308.696,485.34528 L 1352.9983,540.69297 L 1311.6855,513.41358 L 1338.2132,539.10677 C 1266.1212,506.63982 1253.5974,482.13407 1230.3431,456.56272 L 1247.9931,498.17531 C 1231.291,496.03598 1221.1788,482.83765 1193.9749,460.43259 L 1210.251,483.809 L 1168.2738,452.12836 L 1183.7194,473.34567 L 1146.2264,446.14931 L 1134.9856,452.17637 C 1065.6234,411.68163 1002.7349,348.69452 936.80844,296.51358 L 1052.5406,287.587 z " id="path2279" sodipodi:nodetypes="ccccccccccccccccccc"/>
    <path style="opacity:1;fill:url(#linearGradient3235);fill-opacity:1;fill-rule:nonzero;stroke:none;stroke-width:3.5999999;stroke-linecap:round;stroke-miterlimit:4;stroke-dasharray:none;stroke-opacity:1" d="M 581.29392,205.68659 C 581.29392,205.68659 580.62959,240.89652 596.32433,259.29039 C 612.01907,277.68426 660.7641,303.34433 742.64246,311.89769 C 824.52083,320.45105 972.65418,299.06765 991.71208,296.20269 C 1010.77,293.33774 1081.1046,289.2336 1081.1046,289.2336 C 1091.8116,281.18701 1082.4174,275.94541 1070.3103,271.0824 L 969.54015,254.14177 L 942.42728,244.17669 L 907.57669,215.48558 L 828.35563,192.31678 L 809.46382,187.62489 L 662.772,154.2834 L 609.79188,160.84374 L 581.29392,205.68659 z " id="path2265" sodipodi:nodetypes="cssscccccccccc"/>
    <path style="opacity:1;fill:#ececec;fill-opacity:1;fill-rule:nonzero;stroke:none;stroke-width:3.5999999;stroke-linecap:round;stroke-miterlimit:4;stroke-dasharray:none;stroke-opacity:1" d="M 603.52056,194.47588 C 603.52056,194.47588 628.43284,226.73781 636.69542,229.64429 C 644.95799,232.55077 665.09542,245.29776 672.52758,245.29776 C 679.95975,245.29776 728.84512,251.55919 753.86618,239.23568 C 772.85204,239.97614 804.79101,227.73737 805.55916,220.01138 C 806.40982,211.4555 834.54045,215.94231 833.54396,203.73509 C 832.54747,191.52787 768.3153,168.89885 768.3153,168.89885 C 768.3153,168.89885 703.83401,151.45996 700.09717,148.51196 C 696.36033,145.56396 620.41939,149.46695 620.41939,149.46695 L 593.38957,161.59113 L 590.56618,195.84607 L 603.52056,194.47588 z " id="path2269" sodipodi:nodetypes="csscsscscccc"/>
    <path style="opacity:1;fill:#000000;fill-opacity:1;fill-rule:nonzero;stroke:none;stroke-width:3.5999999;stroke-linecap:round;stroke-miterlimit:4;stroke-dasharray:none;stroke-opacity:1" d="M 751.19567,11.440651 L 736.99568,45.737121 L 754.43428,53.127885 C 754.43428,53.127885 708.76176,70.317641 714.74071,92.240809 C 720.71965,114.16398 742.22726,117.85936 773.28457,123.46471 C 804.34188,129.07007 841.5027,157.13837 841.5027,157.13837 C 841.5027,157.13837 853.04539,169.01342 848.76878,172.33511 C 844.49217,175.6568 835.35767,178.18959 835.35767,178.18959 C 835.35767,178.18959 831.08106,190.1892 826.30621,188.56988 C 821.53135,186.95055 811.52492,191.26875 811.52492,191.26875 C 811.52492,191.26875 768.92492,176.90243 763.90094,177.35917 C 758.87697,177.8159 737.41088,183.33821 723.50153,184.45928 C 709.59217,185.58035 680.81848,179.02001 668.69451,180.05804 C 656.57053,181.09607 627.92141,167.0204 627.92141,167.0204 C 627.92141,167.0204 627.17404,174.95094 622.19158,176.07201 C 617.20913,177.19308 604.04714,176.57026 601.55591,181.38672 C 599.06468,186.20317 596.78105,191.10267 595.66,195.79456 C 594.53895,200.48645 586.40094,212.31998 586.40094,212.31998 L 577.55708,211.69716 L 577.43252,246.49188 C 577.43252,246.49188 554.38866,202.23034 551.85591,184.87449 C 549.32316,167.51865 556.13252,134.34326 563.44012,106.23344 C 570.74772,78.123618 571.07988,48.477516 591.7986,23.149615 C 612.51731,-2.1782868 644.77872,-13.47204 672.01614,-15.340491 C 699.25357,-17.208943 731.39041,-12.06032 751.19567,11.440651 z " id="path2263" sodipodi:nodetypes="cccsscscscssscssscccssssc"/>
    <path style="opacity:1;fill:#000080;fill-opacity:1;fill-rule:nonzero;stroke:none;stroke-width:3.5999999;stroke-linecap:round;stroke-miterlimit:4;stroke-dasharray:none;stroke-opacity:1" d="M 867.9494,167.32104 C 867.9494,167.32104 921.22016,195.18174 946.00788,206.18484 C 970.7956,217.18795 1051.3596,269.10434 1051.3596,269.10434 L 1018.4196,261.8647 C 1018.4196,261.8647 987.11315,238.4883 972.58098,229.43668 C 958.04882,220.38507 922.46578,205.22985 913.74648,198.37886 C 905.02718,191.52787 889.33244,183.38973 886.05232,182.3517 C 882.77221,181.31367 868.73829,167.0304 867.9494,167.32104 z " id="path2275" sodipodi:nodetypes="csccsssc"/>
    <path style="opacity:1;fill:#333333;fill-opacity:1;fill-rule:nonzero;stroke:#000000;stroke-width:2;stroke-linecap:round;stroke-miterlimit:4;stroke-dasharray:none;stroke-opacity:1" d="M 824.17662,44.825489 C 824.17662,44.825489 788.50444,26.100036 735.9072,34.112686" id="path3187" sodipodi:nodetypes="cc"/>
    <path transform="translate(-76.239665,-55.320215)" d="M 779.8553 82.715446 A 10.284562 9.4176083 0 1 1  759.28618,82.715446 A 10.284562 9.4176083 0 1 1  779.8553 82.715446 z" sodipodi:ry="9.4176083" sodipodi:rx="10.284562" sodipodi:cy="82.715446" sodipodi:cx="769.57074" id="path3195" style="opacity:1;fill:#333333;fill-opacity:1;fill-rule:nonzero;stroke:#000000;stroke-width:2;stroke-linecap:round;stroke-miterlimit:4;stroke-dasharray:none;stroke-opacity:1" sodipodi:type="arc"/>
    <path transform="matrix(1.3429952,0,0,1.3989071,-406.89605,-87.925647)" d="M 823.67171 82.342255 A 4.544086 4.0173016 0 1 1  814.58354,82.342255 A 4.544086 4.0173016 0 1 1  823.67171 82.342255 z" sodipodi:ry="4.0173016" sodipodi:rx="4.544086" sodipodi:cy="82.342255" sodipodi:cx="819.12762" id="path3197" style="opacity:1;fill:#000000;fill-opacity:1;fill-rule:nonzero;stroke:none;stroke-width:2;stroke-linecap:round;stroke-miterlimit:4;stroke-dasharray:none;stroke-opacity:1" sodipodi:type="arc"/>
    <path transform="translate(-124.18306,-53.607923)" d="M 825.99863 80.344582 A 3.1611032 3.5123947 0 1 1  819.67642,80.344582 A 3.1611032 3.5123947 0 1 1  825.99863 80.344582 z" sodipodi:ry="3.5123947" sodipodi:rx="3.1611032" sodipodi:cy="80.344582" sodipodi:cx="822.83752" id="path3199" style="opacity:1;fill:#ffffff;fill-opacity:1;fill-rule:nonzero;stroke:none;stroke-width:2;stroke-linecap:round;stroke-miterlimit:4;stroke-dasharray:none;stroke-opacity:1" sodipodi:type="arc"/>
  </g>
</svg>