<?xml version="1.0" encoding="UTF-8"?>
<!-- Generator: Adobe Illustrator 13.0.1, SVG Export Plug-In . SVG Version: 6.00 Build 14948)  -->
<!DOCTYPE svg PUBLIC "-//W3C//DTD SVG 1.1//EN" "http://www.w3.org/Graphics/SVG/1.1/DTD/svg11.dtd">
<svg version="1.1" id="svg2" xmlns:svg="http://www.w3.org/2000/svg" sodipodi:docbase="/home/susi/Desktop" xmlns:rdf="http://www.w3.org/1999/02/22-rdf-syntax-ns#" xmlns:dc="http://purl.org/dc/elements/1.1/" sodipodi:docname="adsise_haematopus_ostralegus.svg" xmlns:sodipodi="http://sodipodi.sourceforge.net/DTD/sodipodi-0.dtd" sodipodi:version="0.32" inkscape:version="0.44.1" xmlns:cc="http://web.resource.org/cc/" xmlns:inkscape="http://www.inkscape.org/namespaces/inkscape" xmlns="http://www.w3.org/2000/svg" xmlns:xlink="http://www.w3.org/1999/xlink" x="0px" y="0px" width="495.192px" height="383.894px" viewBox="35.395 164.242 495.192 383.894" enable-background="new 35.395 164.242 495.192 383.894" xml:space="preserve"><script xmlns="" id="__gaOptOutExtension"/>
<sodipodi:namedview height="600px" width="600px" id="base" inkscape:showpageshadow="false" showborder="false" inkscape:pageopacity="0.0" borderopacity="1.0" pagecolor="#ffffff" inkscape:zoom="0.60531022" inkscape:cx="240.64183" inkscape:cy="232.79751" inkscape:window-y="17" inkscape:window-x="0" inkscape:window-height="978" bordercolor="#666666" inkscape:window-width="945" inkscape:current-layer="layer3" inkscape:pageshadow="2" inkscape:document-units="px">
	</sodipodi:namedview>
<g id="layer3" sodipodi:insensitive="true" inkscape:groupmode="layer" inkscape:label="pajaro">
	
		<g id="g2248" transform="matrix(1.548415,0,0,1.548415,-1774.143,102.624)" inkscape:export-ydpi="149.97372" inkscape:export-xdpi="149.97372" inkscape:export-filename="/home/susi/Desktop/adsise_haematopus_ostralegus.png">
		
			<linearGradient id="path1332_1_" gradientUnits="userSpaceOnUse" x1="2296.2251" y1="253.5443" x2="2296.2251" y2="179.4281" gradientTransform="matrix(2.3976 0 0 2.3976 -4208.1025 -330.7214)">
			<stop offset="0" style="stop-color:#F5866C"/>
			<stop offset="1" style="stop-color:#A33C22"/>
		</linearGradient>
		<path id="path1332" sodipodi:nodetypes="cscsccsssscccsc" fill="url(#path1332_1_)" d="M1269.598,199.351    c0.342,0.684-0.684,14.024,0.684,17.103c1.369,3.078,0,7.184,6.499,12.657c1.026,2.737,9.92,27.707,9.235,31.811    c-0.684,4.105-10.946,20.524-12.998,25.313c0,4.104,16.375-13.649,24.584-7.834c3.078,2.052,10.648,6.808,14.068,5.44    c0.855-0.342-10.918-13.471-12.425-15.459c-1.507-1.988,27.586,2.134,25.064-0.603c-2.522-2.737,2.331,0.457,0.139-2.13    c-2.191-2.587-30.923-0.262-32.275-7.462c0-1.71-9.92-29.075-10.262-33.179c1.369-2.395,3.079-12.998-3.078-18.129    c-2.052-2.395-1.71-6.499-3.421-8.551C1273.703,196.272,1268.572,194.562,1269.598,199.351z"/>
		
			<linearGradient id="path1334_1_" gradientUnits="userSpaceOnUse" x1="2310.6023" y1="244.8907" x2="2314.542" y2="182.0383" gradientTransform="matrix(2.3976 0 0 2.3976 -4208.1025 -330.7214)">
			<stop offset="0" style="stop-color:#F5866C"/>
			<stop offset="1" style="stop-color:#A33C22"/>
		</linearGradient>
		<path id="path1334" sodipodi:nodetypes="cscccssssssssscccccc" fill="url(#path1334_1_)" d="M1312.013,195.93    c-0.342,2.052-2.737,4.789-4.105,8.21c-1.368,3.42-5.131,10.604-0.684,18.129c1.368,3.078,11.972,27.707,10.262,31.469    c-1.026,2.737-4.789,9.235-11.63,8.209c-3.079,0-6.157,1.71-4.789,4.789c1.368,3.079,2.395,5.131,4.447,4.447    c2.052-0.684-2.052-5.131,1.71-5.815c3.763-0.684,12.314-2.737,14.708-1.369c2.395,1.369,12.012,14.236,14.775,15.757    c3.707,2.041,6.433,2.372,5.407-0.365c-1.026-2.737-3.31-13.837-11.552-18.802c-3.942-2.375,8.761,7.911,14.576,9.279    c5.816,1.369,9.357,0.209,14.775-1.213c2.585-0.679,2.726-7.735-4.116-4.657c-5.131,1.027-20.865-2.052-24.628-7.525    c-2.052-4.105-14.366-27.023-13.34-33.522c1.026-3.421,2.394-10.946-0.342-14.709c0-5.473,1.026-16.077,5.815-18.813    C1323.985,185.326,1313.039,196.272,1312.013,195.93z"/>
		<path id="path1318" d="M1199.134,161.04c-0.684,1.369-23.944,29.075-30.443,33.863c-1.026,2.395,13.34,4.789,17.445,1.025    c4.104-3.763,3.421-7.525,5.131-4.446c1.71,3.078-0.684,4.104,2.052,4.104c2.736,0,19.839,0.342,19.839,0.342    s-3.42,3.763-0.684,3.078c2.736-0.684,26.681-14.708,26.681-14.708s3.079-2.052,4.447-1.71c1.368,0.342,8.893,0.342,6.841-3.078    c-2.052-3.42,13.682-19.155-3.421-22.918C1229.919,152.831,1199.476,160.014,1199.134,161.04z"/>
		
			<linearGradient id="path1322_1_" gradientUnits="userSpaceOnUse" x1="2300.415" y1="202.4935" x2="2308.7766" y2="227.6933" gradientTransform="matrix(2.3976 0 0 2.3976 -4208.1025 -330.7214)">
			<stop offset="0" style="stop-color:#FFFFFF"/>
			<stop offset="1" style="stop-color:#C8C8C5"/>
		</linearGradient>
		<path id="path1322" fill="url(#path1322_1_)" d="M1242.575,183.274c2.052,0.684,15.735,10.604,23.602,12.314    c3.763,2.052,2.736,2.737,4.104,3.42c1.369,0.684,3.421,0.684,4.789,0.684s1.71,0,1.71,0l1.368-3.078    c0,0,11.63,5.815,33.864-1.026c-1.026,0,60.544-19.839,58.834-62.597c1.71-3.421-1.368-14.366-1.368-14.366    s-78.331-29.759-90.303-26.681c-11.972,3.079-28.049,4.105-31.812,11.288C1245.654,114.862,1243.26,182.932,1242.575,183.274z"/>
		
			<linearGradient id="path1326_1_" gradientUnits="userSpaceOnUse" x1="2348.9436" y1="175.2012" x2="2347.3279" y2="164.2274" gradientTransform="matrix(2.3976 0 0 2.3976 -4208.1025 -330.7214)">
			<stop offset="0" style="stop-color:#743010"/>
			<stop offset="1" style="stop-color:#000000"/>
		</linearGradient>
		<path id="path1326" fill="url(#path1326_1_)" d="M1412.92,86.814c0,0,1.71,22.918,44.467,74.568    c-1.026-0.342-55.413-68.07-55.413-68.07s-3.763-6.841,0-9.919c3.763-3.079,11.288-4.789,11.63-1.368    C1413.946,85.446,1412.92,87.498,1412.92,86.814z"/>
		
			<linearGradient id="path2070_1_" gradientUnits="userSpaceOnUse" x1="2272.5557" y1="198.6211" x2="2243.3711" y2="230.639" gradientTransform="matrix(2.3976 0 0 2.3976 -4208.1025 -330.7214)">
			<stop offset="0" style="stop-color:#FFFFFF"/>
			<stop offset="1" style="stop-color:#C8C8C5"/>
		</linearGradient>
		<path id="path2070" sodipodi:nodetypes="csssssssc" fill="url(#path2070_1_)" d="M1202.78,160.918    c-2.372,1.779-27.572,26.386-22.235,26.386s10.08-6.819,9.783-4.447c-0.296,2.371,3.854,4.151,9.191,1.779    c5.337-2.371-2.965,2.371,0.889,2.965c3.854,0.593,13.934-1.779,16.01-2.372c2.075-0.593,17.195,0.89,14.527-3.558    c-2.668-4.446-11.562-11.562-20.456-11.859C1201.594,169.516,1203.372,161.511,1202.78,160.918z"/>
		
			<linearGradient id="path1320_1_" gradientUnits="userSpaceOnUse" x1="2272.1562" y1="209.9873" x2="2278.4783" y2="212.7296" gradientTransform="matrix(2.3976 0 0 2.3976 -4208.1025 -330.7214)">
			<stop offset="0" style="stop-color:#FFFFFF"/>
			<stop offset="1" style="stop-color:#C8C8C5"/>
		</linearGradient>
		<path id="path1320" sodipodi:nodetypes="ccssccsssccsssc" fill="url(#path1320_1_)" d="M1204.607,155.909    c0,0-17.011,21.87-4.606,11.972c8.552,1.369,7,5.131,10.421,4.789c3.421-0.342,5.131,4.105,7.183,6.499    c2.052,2.394,4.789,6.157,4.789,6.157l0.342-5.815c0,0,1.026,3.421,3.079,3.421c2.052,0,3.762,1.025,7.183,0    c3.421-1.027,8.21-0.342,8.21-1.71c0-1.369,6.841-11.288,6.841-11.288l5.131-5.473c0,0-1.026-6.499-5.473-8.209    c-4.447-1.71-14.708-5.473-19.497-4.789c-4.789,0.684-9.578,1.71-11.972,2.737    C1213.843,155.226,1204.949,156.594,1204.607,155.909z"/>
		
			<linearGradient id="path1309_1_" gradientUnits="userSpaceOnUse" x1="2299.4575" y1="181.1499" x2="2266.6545" y2="114.1476" gradientTransform="matrix(2.3976 0 0 2.3976 -4208.1025 -330.7214)">
			<stop offset="0" style="stop-color:#000000"/>
			<stop offset="1" style="stop-color:#FFFF00"/>
		</linearGradient>
		<path id="path1309" sodipodi:nodetypes="ccccccccsscscsccccccccccccccscccczcsscscsccc" fill="url(#path1309_1_)" d="    M1357.95,165.685c-1.05-0.318,13.735-8.017,13.125-32.439c-0.61,0.611-23.812,17.706-37.854,2.442    c-1.221,3.662-14.042,3.662-20.148-7.327c-1.832-0.611-5.495-1.832-5.495-1.832s3.053,13.432,10.379,14.043    c-1.832,0-10.379-3.664-18.317-26.254c0.611-0.611-4.274-5.495-4.274-5.495s0-5.495-4.274-7.937    c-4.274-2.442-1.221-6.106-4.274-4.274c-3.053,1.832-10.99,6.716-10.99,6.716s-7.937,0.611-13.432-1.221    c-5.495-1.832-9.159-3.663-9.159-3.663s-5.495,8.548,0.61,8.548c6.106,0,41.518-14.043,36.023,14.653    c-1.832,7.327-13.432,41.518-39.075,49.455c-0.611-1.832-1.221-7.327-1.221-7.327l-8.548,2.442l-3.663,3.663v-7.937l-4.884,3.053    l-1.221,4.274l-1.221-9.158l-4.274,4.885l-3.053-1.832l-6.105-0.611l-7.938-0.611l-5.495-2.442c0,0-6.716,7.327-1.832-1.221    c4.884-8.548,13.432-31.138,24.422-41.518c10.38-9.769,39.686-32.97,68.382-34.802c6.106-4.274,23.201-14.043,40.297-14.653    c5.495-2.442-0.244-3.053-0.244-3.053s5.257-8.861,25.276-16.605c19.86-7.683,60.906-21.766,57.853,28.3    c-2.442,1.832-9.009,4.18-12.061,6.622c-3.053,2.442-4.274,3.053-4.274,5.495c0,2.442-1.831,9.158-1.831,9.158    s-0.828-1.397,2.835,0.435c3.664,1.832,5.645,8.031,5.645,8.031s-14.585-2.972-17.638-0.529c-3.053,2.442-5.495,5.495-5.495,5.495    l-4.274,1.832C1380.233,112.487,1386.631,157.922,1357.95,165.685z"/>
		
			<linearGradient id="path1324_1_" gradientUnits="userSpaceOnUse" x1="2354.79" y1="187.1376" x2="2392.2532" y2="144.5811" gradientTransform="matrix(2.3976 0 0 2.3976 -4208.1025 -330.7214)">
			<stop offset="0" style="stop-color:#EF6E06"/>
			<stop offset="1" style="stop-color:#FFFFFF"/>
		</linearGradient>
		<path id="path1324" fill="url(#path1324_1_)" d="M1398.211,98.444c0,0,7.525,0.342,58.492,69.78    c-0.684-0.342,7.183,4.104-1.026-8.893c-1.026-1.71-52.334-66.359-50.625-72.174c1.026-1.368,1.369-3.078,4.789-2.736    c3.421,0.342,73.201,48.914,74.911,49.941c1.71,1.026,7.183,1.026,0.342-4.447c-1.368-0.342-66.359-50.282-67.728-55.755    c-1.026-0.684-5.131,4.105-8.893,6.499c-3.763,2.394-6.841,1.71-7.183,4.447C1400.948,87.843,1398.896,98.786,1398.211,98.444z"/>
		<path id="path1328" sodipodi:nodetypes="ccc" fill="#EF6E06" d="M1398.009,68.075c-0.74,1.651-15.995,4.33-14.506-9.652    C1385.903,54.413,1400.295,54.785,1398.009,68.075z"/>
		<path id="path2064" sodipodi:nodetypes="ccc" d="M1395.194,65.976c-0.453,1.008-9.765,2.643-8.855-5.892    C1387.804,57.636,1396.59,57.863,1395.194,65.976z"/>
		<path id="path2066" sodipodi:nodetypes="ccc" fill="#FFFFFF" d="M1391.26,61.619c-0.108,0.366-3.224,1.347-3.298-1.616    C1388.353,59.098,1391.371,58.778,1391.26,61.619z"/>
		<path id="path2068" opacity="0.788" fill="#743010" enable-background="new    " d="M1415.942,82.65c0,0,5.336-0.296,8.894,6.522    C1423.65,89.469,1417.72,86.504,1415.942,82.65z"/>
		
			<linearGradient id="path2240_1_" gradientUnits="userSpaceOnUse" x1="2291.0076" y1="247.7925" x2="2286.2642" y2="266.1731" gradientTransform="matrix(2.3976 0 0 2.3976 -4208.1025 -330.7214)">
			<stop offset="0" style="stop-color:#F5866C"/>
			<stop offset="1" style="stop-color:#544941"/>
		</linearGradient>
		<path id="path2240" sodipodi:nodetypes="cccc" fill="url(#path2240_1_)" d="M1272.45,287.721c0,0,14.752-23.658,17.195-26.892    c3.911,6.115-9.356,22.299-9.356,22.299L1272.45,287.721z"/>
		
			<linearGradient id="path2122_1_" gradientUnits="userSpaceOnUse" x1="2317.3374" y1="184.4547" x2="2325.3037" y2="211.0589" gradientTransform="matrix(-1.2403 -2.0518 2.0518 -1.2403 3830.8943 5259.1489)">
			<stop offset="0" style="stop-color:#F5866C"/>
			<stop offset="1" style="stop-color:#544941"/>
		</linearGradient>
		<path id="path2122" sodipodi:nodetypes="ccc" fill="url(#path2122_1_)" d="M1347.855,270.433    c-2.41-6.815-16.948-9.364-9.563-2.567C1345.737,269.662,1349.89,272.514,1347.855,270.433z"/>
		
			<linearGradient id="path2120_1_" gradientUnits="userSpaceOnUse" x1="2281.6855" y1="215.1596" x2="2276.9421" y2="233.5402" gradientTransform="matrix(1.2225 -2.0625 2.0625 1.2225 -1906.3469 4701.5918)">
			<stop offset="0" style="stop-color:#F5866C"/>
			<stop offset="1" style="stop-color:#544941"/>
		</linearGradient>
		<path id="path2120" sodipodi:nodetypes="cccc" fill="url(#path2120_1_)" d="M1341.445,281.709c0,0-4.234-19.512-14.365-28.504    c7.255-0.246,14.411,19.418,14.411,19.418L1341.445,281.709z"/>
		
			<linearGradient id="path2244_1_" gradientUnits="userSpaceOnUse" x1="2301.6062" y1="242.2633" x2="2309.5752" y2="268.8772" gradientTransform="matrix(2.3976 0 0 2.3976 -4208.1025 -330.7214)">
			<stop offset="0" style="stop-color:#F5866C"/>
			<stop offset="1" style="stop-color:#544941"/>
		</linearGradient>
		<path id="path2244" sodipodi:nodetypes="ccc" fill="url(#path2244_1_)" d="M1308.452,262.464    c10.092,3.773,9.966-3.246,8.875-8.505C1313.799,261.997,1305.619,263.128,1308.452,262.464z"/>
	</g>
</g>
</svg>