<?xml version="1.0" encoding="UTF-8" standalone="no"?>
<!-- Created with Inkscape (http://www.inkscape.org/) -->
<svg xmlns:dc="http://purl.org/dc/elements/1.1/" xmlns:cc="http://web.resource.org/cc/" xmlns:rdf="http://www.w3.org/1999/02/22-rdf-syntax-ns#" xmlns:svg="http://www.w3.org/2000/svg" xmlns="http://www.w3.org/2000/svg" xmlns:xlink="http://www.w3.org/1999/xlink" xmlns:sodipodi="http://sodipodi.sourceforge.net/DTD/sodipodi-0.dtd" xmlns:inkscape="http://www.inkscape.org/namespaces/inkscape" width="390.39334" height="327.77872" id="svg2695" sodipodi:version="0.32" inkscape:version="0.45.1" version="1.0" sodipodi:docbase="D:\Inkscape Grafiken\OCAL" sodipodi:docname="hummingbird.svg" inkscape:output_extension="org.inkscape.output.svg.inkscape"><script xmlns="" id="__gaOptOutExtension"/>
  <defs id="defs3">
    <clipPath clipPathUnits="userSpaceOnUse" id="clipPath2426">
      <path id="path2428" d="M 146.89731,84.264964 C 146.01194,84.256362 145.52468,84.377939 145.52937,84.623155 C 145.543,85.336079 168.98003,89.855123 189.06125,101.42405 C 208.79568,112.7932 213.77093,120.62594 216.81906,133.91715 C 220.06241,148.05945 222.78804,156.18408 227.43486,165.57447 C 229.83578,170.42629 233.09129,180.10555 234.67355,187.08303 C 240.16296,211.29015 250.11777,234.36885 267.4044,262.98555 C 274.20427,274.24221 277.1605,280.07627 278.02019,284.32354 C 278.9345,285.90861 279.14589,286.06332 279.14589,286.06332 L 283.52046,288.63889 L 285.03089,289.16765 L 289.83294,295.15457 C 289.84195,295.15978 289.85239,295.16629 289.86143,295.17163 C 291.08672,295.89453 292.54681,297.77233 295.29045,301.39734 C 304.60565,313.70494 307.6118,322.47483 308.79887,340.83253 C 309.43093,350.60702 310.96911,360.44231 312.77445,366.2812 C 314.64693,372.33724 315.95398,380.99131 316.37955,390.07536 C 316.83634,399.82613 317.713,405.24641 319.12968,407.18328 C 321.9074,410.98094 322.58299,409.16593 324.71544,392.44625 C 326.99007,374.61182 327.02269,356.02016 324.85793,314.20695 C 322.56057,269.83245 323.6149,256.07757 329.30374,256.07756 C 331.27366,256.07756 332.75064,254.89891 333.27932,252.90501 C 333.9296,250.45252 335.28163,249.73245 339.24982,249.73245 C 342.07225,249.73245 344.79161,248.94391 345.29156,247.97561 C 345.81602,246.95984 348.04501,246.56804 350.54958,247.05455 C 354.05846,247.73615 355.01303,247.31728 355.55112,244.85423 C 356.07181,242.47082 357.4108,241.80107 361.67836,241.80107 C 366.27908,241.80107 367.32799,241.16986 368.38982,237.82685 C 369.27406,235.04291 370.64361,233.86969 372.99237,233.86968 C 375.72102,233.86968 376.34097,233.09324 376.34098,229.69078 C 376.34098,225.69541 376.58884,225.5549 382.21173,226.31354 C 388.43131,227.15269 390.90386,225.60929 390.90386,220.87244 C 390.90386,218.65741 391.96896,218.00691 395.63465,218.00691 C 402.00062,218.00691 405.48099,215.51511 405.48098,210.96247 C 405.48098,208.05051 406.04188,207.38512 407.98887,207.9946 C 411.44654,209.07693 416.08254,205.82509 416.08253,202.3147 C 416.08253,199.93247 417.46829,199.26401 423.93394,198.56222 C 433.55018,197.51846 434.62097,196.78515 434.62098,191.24487 C 434.62098,187.79585 435.74109,186.12608 439.92176,183.31349 C 442.83629,181.35271 445.22252,179.06261 445.22253,178.23058 C 445.22253,177.39854 450.28618,169.82635 456.47955,161.39557 C 462.67292,152.96481 467.75082,145.57495 467.75081,144.96992 C 467.75081,143.50068 454.97196,146.81153 433.96551,153.73709 C 424.49329,156.85995 415.00099,159.78427 412.87641,160.23571 C 410.75183,160.68717 408.59673,161.36081 408.08862,161.7367 C 407.58052,162.1126 398.93141,162.78988 388.86619,163.2377 C 378.80099,163.68551 368.58815,164.50199 366.16692,165.04571 C 363.74567,165.58942 361.76386,165.47054 361.76385,164.78986 C 361.76385,164.10917 363.6202,159.62585 365.88193,154.82872 C 368.14367,150.03159 370.74306,143.55108 371.66718,140.41577 C 372.59131,137.28046 375.2103,131.20972 377.48093,126.92388 C 379.75158,122.63806 381.35831,118.84082 381.05753,118.4808 C 379.66481,116.81369 365.68954,127.25107 347.05848,143.87829 C 321.46625,166.71797 310.00822,173.6082 297.65585,173.6082 L 288.80698,173.6082 L 277.43597,152.59429 C 259.84379,120.10863 259.76963,120.00296 253.48274,115.01828 C 246.52805,109.50412 240.84847,108.29816 224.64198,108.87785 L 212.72949,109.30427 L 195.50198,99.650148 C 179.01345,90.408331 153.09488,84.325176 146.89731,84.264964 z " style="fill:#00aa00"/>
    </clipPath>
    <clipPath clipPathUnits="userSpaceOnUse" id="clipPath2430">
      <path id="path2432" d="M 166.45407,94.832099 C 165.73964,94.82602 165.34645,94.91193 165.35023,95.085208 C 165.36123,95.588984 184.27335,98.782288 200.47756,106.95727 C 216.40193,114.99108 220.41662,120.52595 222.87626,129.91796 C 225.49343,139.91137 227.69283,145.6525 231.4425,152.28806 C 233.37989,155.71651 236.00687,162.55619 237.28364,167.48671 C 241.71323,184.59225 249.7461,200.90042 263.69526,221.12191 C 269.18231,229.07624 271.56779,233.19878 272.2615,236.20003 C 272.99929,237.3201 273.16986,237.42942 273.16986,237.42942 L 276.69984,239.2494 L 277.91866,239.62304 L 281.79359,243.85359 C 281.80087,243.85728 281.80929,243.86187 281.81659,243.86564 C 282.80531,244.37647 283.98351,245.70339 286.19745,248.26494 C 293.71419,256.96189 296.13995,263.15898 297.09784,276.13114 C 297.60787,283.0381 298.84908,289.98804 300.30587,294.114 C 301.81684,298.39339 302.87154,304.50864 303.21494,310.92773 C 303.58354,317.81794 304.29095,321.64809 305.43412,323.01674 C 307.67555,325.7003 308.22071,324.41775 309.94145,312.60307 C 311.77693,300.00068 311.80325,286.86321 310.05643,257.31663 C 308.20262,225.96016 309.05338,216.24051 313.64391,216.2405 C 315.2335,216.2405 316.42532,215.40763 316.85193,213.99867 C 317.37666,212.26566 318.46767,211.75684 321.66973,211.75684 C 323.94724,211.75684 326.14159,211.19963 326.54501,210.5154 C 326.96821,209.79762 328.76686,209.52076 330.78788,209.86454 C 333.61932,210.34619 334.38959,210.0502 334.82379,208.30972 C 335.24395,206.62553 336.32443,206.15227 339.76806,206.15226 C 343.48054,206.15226 344.32694,205.70623 345.18377,203.34395 C 345.89729,201.37673 347.00243,200.54769 348.89772,200.54769 C 351.09955,200.54769 351.59982,199.99903 351.59982,197.59474 C 351.59982,194.77148 351.79983,194.67219 356.33712,195.20827 C 361.35591,195.80124 363.35109,194.71063 363.35109,191.36341 C 363.35109,189.7982 364.21056,189.33853 367.16853,189.33853 C 372.30544,189.33853 375.11387,187.57774 375.11386,184.3607 C 375.11386,182.30301 375.56647,181.83283 377.13756,182.26351 C 379.92767,183.02832 383.66861,180.73046 383.6686,178.2499 C 383.6686,176.56654 384.78682,176.09419 390.00417,175.59828 C 397.76383,174.86073 398.62789,174.34254 398.6279,170.4276 C 398.6279,167.99041 399.53175,166.81049 402.90527,164.82302 C 405.2571,163.43747 407.18263,161.81921 407.18264,161.23127 C 407.18264,160.64333 411.26867,155.29257 416.2663,149.33511 C 421.26395,143.37766 425.36147,138.15574 425.36147,137.72821 C 425.36147,136.69 415.04978,139.02955 398.09898,143.92338 C 390.45553,146.13009 382.79587,148.19651 381.08148,148.51551 C 379.36708,148.83453 377.62806,149.31054 377.21805,149.57616 C 376.80805,149.84178 369.8288,150.32037 361.70683,150.63681 C 353.58489,150.95325 345.34381,151.53021 343.39003,151.91442 C 341.43624,152.29862 339.83706,152.21462 339.83705,151.73362 C 339.83705,151.25263 341.335,148.08457 343.16006,144.69476 C 344.98514,141.30495 347.08267,136.72561 347.82838,134.5101 C 348.57409,132.29458 350.68744,128.0048 352.51969,124.97629 C 354.35195,121.94779 355.64848,119.26453 355.40576,119.01012 C 354.28193,117.83209 343.00482,125.20749 327.9708,136.95683 C 307.31957,153.09609 298.07371,157.96495 288.10617,157.96495 L 280.96572,157.96495 L 271.79007,143.11583 C 257.59435,120.1604 257.53451,120.08573 252.46141,116.5634 C 246.84944,112.66691 242.2664,111.81474 229.18884,112.22437 L 219.57625,112.52569 L 205.6748,105.70377 C 192.36966,99.173203 171.45509,94.874647 166.45407,94.832099 z " style="fill:#00aa00"/>
    </clipPath>
    <linearGradient inkscape:collect="always" id="linearGradient14411">
      <stop style="stop-color:#ffffff;stop-opacity:1;" offset="0" id="stop14413"/>
      <stop style="stop-color:#ffffff;stop-opacity:0;" offset="1" id="stop14415"/>
    </linearGradient>
    <linearGradient inkscape:collect="always" xlink:href="#linearGradient14411" id="linearGradient9357" gradientUnits="userSpaceOnUse" x1="240.38437" y1="115.89909" x2="241.53912" y2="121.17792"/>
    <clipPath clipPathUnits="userSpaceOnUse" id="clipPath2434">
      <path id="path2436" d="M 26.75,31.59375 C 24.808323,31.57799 23.739722,31.800734 23.75,32.25 C 23.779896,33.556162 75.179102,41.835591 119.21875,63.03125 C 162.49786,83.860892 173.40896,98.211413 180.09375,122.5625 C 187.20665,148.47288 193.18417,163.35818 203.375,180.5625 C 208.64041,189.45161 215.77999,207.18518 219.25,219.96875 C 231.2887,264.31909 253.12035,306.60204 291.03125,359.03125 C 305.9439,379.65481 312.42714,390.34351 314.3125,398.125 C 316.31766,401.02905 316.78125,401.3125 316.78125,401.3125 L 326.375,406.03125 L 329.6875,407 L 340.21875,417.96875 C 340.23853,417.9783 340.26141,417.99022 340.28125,418 C 342.96839,419.32445 346.17048,422.76481 352.1875,429.40625 C 372.61644,451.95525 379.20916,468.02273 381.8125,501.65625 C 383.19864,519.56427 386.57199,537.5837 390.53125,548.28125 C 394.63774,559.37664 397.5042,575.23194 398.4375,591.875 C 399.43927,609.73958 401.36187,619.67019 404.46875,623.21875 C 410.5605,630.17653 412.04213,626.85121 416.71875,596.21875 C 421.70719,563.54394 421.77872,529.4818 417.03125,452.875 C 411.99296,371.5756 414.30517,346.37501 426.78125,346.375 C 431.10143,346.375 434.34056,344.21557 435.5,340.5625 C 436.9261,336.06925 439.89122,334.75 448.59375,334.75 C 454.78356,334.75 460.74733,333.30529 461.84375,331.53125 C 462.99393,329.67023 467.88227,328.95242 473.375,329.84375 C 481.07024,331.09253 483.16368,330.32511 484.34375,325.8125 C 485.48567,321.44581 488.42218,320.21876 497.78125,320.21875 C 507.87098,320.21875 510.17133,319.0623 512.5,312.9375 C 514.43921,307.837 517.44274,305.68751 522.59375,305.6875 C 528.57788,305.6875 529.93749,304.26497 529.9375,298.03125 C 529.9375,290.71126 530.48108,290.45382 542.8125,291.84375 C 556.45252,293.38117 561.875,290.55348 561.875,281.875 C 561.875,277.8168 564.21086,276.625 572.25,276.625 C 586.21106,276.625 593.84377,272.05972 593.84375,263.71875 C 593.84375,258.38368 595.07384,257.16462 599.34375,258.28125 C 606.92667,260.26422 617.09377,254.30646 617.09375,247.875 C 617.09375,243.51046 620.13284,242.28577 634.3125,241 C 655.40165,239.08772 657.74998,237.7442 657.75,227.59375 C 657.75,221.27472 660.20648,218.2155 669.375,213.0625 C 675.76679,209.47012 680.99998,205.27438 681,203.75 C 681,202.22561 692.10497,188.35245 705.6875,172.90625 C 719.27005,157.46009 730.40626,143.92098 730.40625,142.8125 C 730.40625,140.12068 702.38125,146.18655 656.3125,158.875 C 635.53919,164.59646 614.72185,169.95415 610.0625,170.78125 C 605.40312,171.60838 600.67683,172.84256 599.5625,173.53125 C 598.44821,174.21993 579.48005,175.4608 557.40625,176.28125 C 535.3325,177.10169 512.93496,178.59759 507.625,179.59375 C 502.31502,180.58988 497.96876,180.37209 497.96875,179.125 C 497.96875,177.8779 502.03986,169.66392 507,160.875 C 511.96017,152.08609 517.66083,140.21302 519.6875,134.46875 C 521.71419,128.72448 527.45783,117.60216 532.4375,109.75 C 537.4172,101.89786 540.9409,94.94085 540.28125,94.28125 C 537.22691,91.226905 506.57809,110.34945 465.71875,140.8125 C 409.59302,182.65753 384.4647,195.28125 357.375,195.28125 L 337.96875,195.28125 L 313.03125,156.78125 C 274.45027,97.26363 274.28763,97.070028 260.5,87.9375 C 245.24783,77.834903 232.79208,75.625449 197.25,76.6875 L 171.125,77.46875 L 133.34375,59.78125 C 97.183158,42.849134 40.341742,31.704067 26.75,31.59375 z " style="fill:#00aa00"/>
    </clipPath>
    <linearGradient inkscape:collect="always" id="linearGradient2690">
      <stop style="stop-color:#008000;stop-opacity:1;" offset="0" id="stop2692"/>
      <stop style="stop-color:#008000;stop-opacity:0;" offset="1" id="stop2694"/>
    </linearGradient>
    <linearGradient inkscape:collect="always" xlink:href="#linearGradient2690" id="linearGradient9355" gradientUnits="userSpaceOnUse" x1="479.95184" y1="162.77159" x2="468.68195" y2="139.26588"/>
    <clipPath clipPathUnits="userSpaceOnUse" id="clipPath2438">
      <path id="path2440" d="M 116.86224,59.673511 C 115.60334,59.663293 114.9105,59.807712 114.91716,60.098998 C 114.93654,60.945863 148.26179,66.313923 176.81539,80.056363 C 204.87588,93.561493 211.95021,102.86581 216.28437,118.65411 C 220.89609,135.45339 224.77169,145.10444 231.37902,156.25905 C 234.79291,162.02241 239.42194,173.52016 241.67176,181.80853 C 249.47718,210.56357 263.63197,237.97819 288.21193,271.97125 C 297.88071,285.34276 302.08419,292.2729 303.30658,297.31812 C 304.60665,299.20099 304.90722,299.38477 304.90722,299.38477 L 311.12744,302.44422 L 313.27514,303.07232 L 320.10319,310.18403 C 320.11601,310.19022 320.13085,310.19795 320.14371,310.20429 C 321.88595,311.06301 323.96206,313.29361 327.86326,317.59966 C 341.10859,332.21956 345.38305,342.63708 347.07096,364.44375 C 347.96968,376.05461 350.15683,387.73771 352.72386,394.67359 C 355.38634,401.86741 357.24485,412.14737 357.84996,422.93808 C 358.49947,434.52078 359.74601,440.9594 361.76039,443.26015 C 365.71004,447.7713 366.67067,445.61529 369.70281,425.7544 C 372.93712,404.56932 372.9835,382.48475 369.90542,332.81589 C 366.63879,280.10452 368.13794,263.76543 376.22695,263.76543 C 379.02798,263.76543 381.12811,262.36534 381.87984,259.99683 C 382.80447,257.08358 384.72694,256.22823 390.36932,256.22823 C 394.38255,256.22823 398.24923,255.29154 398.96011,254.14132 C 399.70584,252.93471 402.87525,252.46931 406.43652,253.04721 C 411.42581,253.85687 412.78312,253.3593 413.54823,250.4335 C 414.28861,247.60231 416.19253,246.80674 422.26058,246.80673 C 428.80237,246.80673 430.29383,246.05694 431.80365,242.08585 C 433.06096,238.77889 435.00833,237.38524 438.34804,237.38524 C 442.22792,237.38524 443.10944,236.46292 443.10945,232.42122 C 443.10945,227.67522 443.46188,227.50831 451.45709,228.40949 C 460.30075,229.40629 463.81648,227.57293 463.81648,221.94614 C 463.81648,219.31496 465.33096,218.54224 470.54322,218.54224 C 479.59503,218.54224 484.54378,215.58229 484.54377,210.17433 C 484.54377,206.71528 485.34131,205.92489 488.10976,206.64887 C 493.02623,207.93455 499.61818,204.07177 499.61817,199.90186 C 499.61817,197.07206 501.58859,196.27802 510.78213,195.44438 C 524.45552,194.20453 525.97809,193.33344 525.9781,186.75229 C 525.9781,182.65527 527.57078,180.67179 533.5153,177.33079 C 537.65948,175.00163 541.05248,172.28128 541.05249,171.29293 C 541.05249,170.30457 548.25252,161.30975 557.05891,151.29504 C 565.86531,141.28035 573.08559,132.50212 573.08558,131.78342 C 573.08558,130.03815 554.91526,133.97103 525.04608,142.19772 C 511.57747,145.90729 498.08032,149.38101 495.05938,149.91727 C 492.03842,150.45355 488.97407,151.25374 488.25159,151.70026 C 487.52912,152.14678 475.23091,152.95131 460.91911,153.48326 C 446.60735,154.0152 432.08566,154.98508 428.64289,155.63095 C 425.2001,156.27681 422.38216,156.1356 422.38215,155.32703 C 422.38215,154.51846 425.0217,149.19284 428.23766,143.49444 C 431.45364,137.79606 435.14973,130.09802 436.46374,126.37366 C 437.77777,122.6493 441.50172,115.43802 444.73035,110.34698 C 447.95899,105.25596 450.24362,100.74531 449.81593,100.31765 C 447.83562,98.337329 427.96411,110.73564 401.47251,130.4867 C 365.08277,157.61739 348.79054,165.80212 331.22663,165.80212 L 318.64438,165.80212 L 302.47587,140.84022 C 277.46146,102.25131 277.35601,102.12578 268.41665,96.204607 C 258.52774,89.654476 250.45191,88.221952 227.40781,88.910545 L 210.46938,89.417077 L 185.97349,77.94919 C 162.52836,66.971064 125.6746,59.745037 116.86224,59.673511 z " style="fill:#00aa00"/>
    </clipPath>
    <filter inkscape:collect="always" x="-0.14019874" width="1.2803975" y="-0.03942088" height="1.0788418" id="filter12434">
      <feGaussianBlur inkscape:collect="always" stdDeviation="3.472428" id="feGaussianBlur12436"/>
    </filter>
    <clipPath clipPathUnits="userSpaceOnUse" id="clipPath2442">
      <path id="path2444" d="M 171.72092,97.530067 C 171.05262,97.524642 170.68481,97.601309 170.68835,97.755942 C 170.69864,98.205513 188.38982,101.05522 203.5479,108.35059 C 218.44421,115.51998 222.19972,120.45931 224.50057,128.84076 C 226.94877,137.75889 229.00618,142.88229 232.51378,148.80387 C 234.32609,151.86343 236.78348,157.96718 237.97783,162.36718 C 242.12145,177.6322 249.63572,192.18564 262.68434,210.23134 C 267.81715,217.32979 270.04862,221.00876 270.69755,223.68708 C 271.38771,224.68663 271.54727,224.78419 271.54727,224.78419 L 274.84936,226.40835 L 275.9895,226.74178 L 279.61427,230.51713 C 279.62107,230.52042 279.62895,230.52452 279.63578,230.52789 C 280.56067,230.98375 281.6628,232.1679 283.73381,234.45383 C 290.76528,242.21501 293.03444,247.7453 293.93049,259.32168 C 294.40759,265.48547 295.56867,271.68761 296.93141,275.36961 C 298.34483,279.18856 299.33144,284.64582 299.65268,290.37422 C 299.99748,296.52306 300.65922,299.9411 301.72858,301.16248 C 303.82531,303.55729 304.33528,302.41274 305.94493,291.8693 C 307.66191,280.62291 307.68653,268.899 306.05249,242.53158 C 304.31835,214.549 305.1142,205.87516 309.40836,205.87516 C 310.89533,205.87516 312.01021,205.1319 312.40928,203.87455 C 312.90013,202.32801 313.9207,201.87393 316.91604,201.87393 C 319.04652,201.87393 321.0992,201.37667 321.47658,200.76606 C 321.87246,200.12552 323.55499,199.87845 325.44554,200.18524 C 328.09418,200.61506 328.81472,200.35092 329.22089,198.79772 C 329.61393,197.29474 330.62466,196.8724 333.84597,196.8724 C 337.31877,196.8724 338.11053,196.47435 338.91204,194.36625 C 339.5795,192.6107 340.61329,191.87086 342.38623,191.87086 C 344.44591,191.87086 344.91388,191.38124 344.91388,189.23564 C 344.91388,186.71616 345.10098,186.62755 349.34535,187.10596 C 354.04013,187.63512 355.90651,186.66186 355.90651,183.6748 C 355.90651,182.278 356.71049,181.86779 359.4775,181.86779 C 364.28278,181.86779 366.90989,180.29646 366.90989,177.42556 C 366.90989,175.58928 367.33327,175.16969 368.80294,175.55402 C 371.41292,176.23654 374.91235,174.18593 374.91234,171.97228 C 374.91234,170.47004 375.95837,170.04851 380.83889,169.60596 C 388.0976,168.94777 388.90588,168.48534 388.90589,164.99164 C 388.90589,162.81668 389.75139,161.76372 392.90711,159.9901 C 395.10712,158.75364 396.90834,157.3095 396.90834,156.78482 C 396.90834,156.26014 400.73058,151.48511 405.40558,146.16866 C 410.08058,140.85222 413.91357,136.19217 413.91356,135.81064 C 413.91356,134.88413 404.26759,136.97196 388.41111,141.33922 C 381.26111,143.3085 374.09595,145.15257 372.49224,145.43725 C 370.88852,145.72194 369.26177,146.14673 368.87823,146.38378 C 368.4947,146.62081 361.96602,147.04791 354.3684,147.3303 C 346.7708,147.61269 339.06175,148.12757 337.23411,148.47044 C 335.40646,148.8133 333.91051,148.73834 333.91051,148.3091 C 333.91051,147.87986 335.31175,145.05267 337.01899,142.0276 C 338.72624,139.00253 340.68836,134.91592 341.38592,132.93879 C 342.08349,130.96166 344.0604,127.13345 345.77436,124.4308 C 347.48834,121.72816 348.70116,119.33361 348.47412,119.10658 C 347.42284,118.0553 336.87377,124.63712 322.81032,135.12225 C 303.49231,149.52497 294.84335,153.86995 285.5193,153.86995 L 278.83983,153.86995 L 270.25655,140.61856 C 256.9773,120.13309 256.92132,120.06646 252.17573,116.92312 C 246.92606,113.44589 242.6389,112.68541 230.40561,113.05096 L 221.4136,113.31986 L 208.40961,107.23197 C 195.96343,101.40408 176.39909,97.568037 171.72092,97.530067 z " style="fill:#00aa00"/>
    </clipPath>
    <clipPath clipPathUnits="userSpaceOnUse" id="clipPath2446">
      <path id="path2448" d="M 26.75,31.59375 C 24.808323,31.57799 23.739722,31.800734 23.75,32.25 C 23.779896,33.556162 75.179102,41.835591 119.21875,63.03125 C 162.49786,83.860892 173.40896,98.211413 180.09375,122.5625 C 187.20665,148.47288 193.18417,163.35818 203.375,180.5625 C 208.64041,189.45161 215.77999,207.18518 219.25,219.96875 C 231.2887,264.31909 253.12035,306.60204 291.03125,359.03125 C 305.9439,379.65481 312.42714,390.34351 314.3125,398.125 C 316.31766,401.02905 316.78125,401.3125 316.78125,401.3125 L 326.375,406.03125 L 329.6875,407 L 340.21875,417.96875 C 340.23853,417.9783 340.26141,417.99022 340.28125,418 C 342.96839,419.32445 346.17048,422.76481 352.1875,429.40625 C 372.61644,451.95525 379.20916,468.02273 381.8125,501.65625 C 383.19864,519.56427 386.57199,537.5837 390.53125,548.28125 C 394.63774,559.37664 397.5042,575.23194 398.4375,591.875 C 399.43927,609.73958 401.36187,619.67019 404.46875,623.21875 C 410.5605,630.17653 412.04213,626.85121 416.71875,596.21875 C 421.70719,563.54394 421.77872,529.4818 417.03125,452.875 C 411.99296,371.5756 414.30517,346.37501 426.78125,346.375 C 431.10143,346.375 434.34056,344.21557 435.5,340.5625 C 436.9261,336.06925 439.89122,334.75 448.59375,334.75 C 454.78356,334.75 460.74733,333.30529 461.84375,331.53125 C 462.99393,329.67023 467.88227,328.95242 473.375,329.84375 C 481.07024,331.09253 483.16368,330.32511 484.34375,325.8125 C 485.48567,321.44581 488.42218,320.21876 497.78125,320.21875 C 507.87098,320.21875 510.17133,319.0623 512.5,312.9375 C 514.43921,307.837 517.44274,305.68751 522.59375,305.6875 C 528.57788,305.6875 529.93749,304.26497 529.9375,298.03125 C 529.9375,290.71126 530.48108,290.45382 542.8125,291.84375 C 556.45252,293.38117 561.875,290.55348 561.875,281.875 C 561.875,277.8168 564.21086,276.625 572.25,276.625 C 586.21106,276.625 593.84377,272.05972 593.84375,263.71875 C 593.84375,258.38368 595.07384,257.16462 599.34375,258.28125 C 606.92667,260.26422 617.09377,254.30646 617.09375,247.875 C 617.09375,243.51046 620.13284,242.28577 634.3125,241 C 655.40165,239.08772 657.74998,237.7442 657.75,227.59375 C 657.75,221.27472 660.20648,218.2155 669.375,213.0625 C 675.76679,209.47012 680.99998,205.27438 681,203.75 C 681,202.22561 692.10497,188.35245 705.6875,172.90625 C 719.27005,157.46009 730.40626,143.92098 730.40625,142.8125 C 730.40625,140.12068 702.38125,146.18655 656.3125,158.875 C 635.53919,164.59646 614.72185,169.95415 610.0625,170.78125 C 605.40312,171.60838 600.67683,172.84256 599.5625,173.53125 C 598.44821,174.21993 579.48005,175.4608 557.40625,176.28125 C 535.3325,177.10169 512.93496,178.59759 507.625,179.59375 C 502.31502,180.58988 497.96876,180.37209 497.96875,179.125 C 497.96875,177.8779 502.03986,169.66392 507,160.875 C 511.96017,152.08609 517.66083,140.21302 519.6875,134.46875 C 521.71419,128.72448 527.45783,117.60216 532.4375,109.75 C 537.4172,101.89786 540.9409,94.94085 540.28125,94.28125 C 537.22691,91.226905 506.57809,110.34945 465.71875,140.8125 C 409.59302,182.65753 384.4647,195.28125 357.375,195.28125 L 337.96875,195.28125 L 313.03125,156.78125 C 274.45027,97.26363 274.28763,97.070028 260.5,87.9375 C 245.24783,77.834903 232.79208,75.625449 197.25,76.6875 L 171.125,77.46875 L 133.34375,59.78125 C 97.183158,42.849134 40.341742,31.704067 26.75,31.59375 z " style="fill:#00aa00"/>
    </clipPath>
    <filter inkscape:collect="always" id="filter5406">
      <feGaussianBlur inkscape:collect="always" stdDeviation="1.1664792" id="feGaussianBlur5408"/>
    </filter>
    <clipPath clipPathUnits="userSpaceOnUse" id="clipPath2450">
      <path id="path2452" d="M 171.72092,97.530067 C 171.05262,97.524642 170.68481,97.601309 170.68835,97.755942 C 170.69864,98.205513 188.38982,101.05522 203.5479,108.35059 C 218.44421,115.51998 222.19972,120.45931 224.50057,128.84076 C 226.94877,137.75889 229.00618,142.88229 232.51378,148.80387 C 234.32609,151.86343 236.78348,157.96718 237.97783,162.36718 C 242.12145,177.6322 249.63572,192.18564 262.68434,210.23134 C 267.81715,217.32979 270.04862,221.00876 270.69755,223.68708 C 271.38771,224.68663 271.54727,224.78419 271.54727,224.78419 L 274.84936,226.40835 L 275.9895,226.74178 L 279.61427,230.51713 C 279.62107,230.52042 279.62895,230.52452 279.63578,230.52789 C 280.56067,230.98375 281.6628,232.1679 283.73381,234.45383 C 290.76528,242.21501 293.03444,247.7453 293.93049,259.32168 C 294.40759,265.48547 295.56867,271.68761 296.93141,275.36961 C 298.34483,279.18856 299.33144,284.64582 299.65268,290.37422 C 299.99748,296.52306 300.65922,299.9411 301.72858,301.16248 C 303.82531,303.55729 304.33528,302.41274 305.94493,291.8693 C 307.66191,280.62291 307.68653,268.899 306.05249,242.53158 C 304.31835,214.549 305.1142,205.87516 309.40836,205.87516 C 310.89533,205.87516 312.01021,205.1319 312.40928,203.87455 C 312.90013,202.32801 313.9207,201.87393 316.91604,201.87393 C 319.04652,201.87393 321.0992,201.37667 321.47658,200.76606 C 321.87246,200.12552 323.55499,199.87845 325.44554,200.18524 C 328.09418,200.61506 328.81472,200.35092 329.22089,198.79772 C 329.61393,197.29474 330.62466,196.8724 333.84597,196.8724 C 337.31877,196.8724 338.11053,196.47435 338.91204,194.36625 C 339.5795,192.6107 340.61329,191.87086 342.38623,191.87086 C 344.44591,191.87086 344.91388,191.38124 344.91388,189.23564 C 344.91388,186.71616 345.10098,186.62755 349.34535,187.10596 C 354.04013,187.63512 355.90651,186.66186 355.90651,183.6748 C 355.90651,182.278 356.71049,181.86779 359.4775,181.86779 C 364.28278,181.86779 366.90989,180.29646 366.90989,177.42556 C 366.90989,175.58928 367.33327,175.16969 368.80294,175.55402 C 371.41292,176.23654 374.91235,174.18593 374.91234,171.97228 C 374.91234,170.47004 375.95837,170.04851 380.83889,169.60596 C 388.0976,168.94777 388.90588,168.48534 388.90589,164.99164 C 388.90589,162.81668 389.75139,161.76372 392.90711,159.9901 C 395.10712,158.75364 396.90834,157.3095 396.90834,156.78482 C 396.90834,156.26014 400.73058,151.48511 405.40558,146.16866 C 410.08058,140.85222 413.91357,136.19217 413.91356,135.81064 C 413.91356,134.88413 404.26759,136.97196 388.41111,141.33922 C 381.26111,143.3085 374.09595,145.15257 372.49224,145.43725 C 370.88852,145.72194 369.26177,146.14673 368.87823,146.38378 C 368.4947,146.62081 361.96602,147.04791 354.3684,147.3303 C 346.7708,147.61269 339.06175,148.12757 337.23411,148.47044 C 335.40646,148.8133 333.91051,148.73834 333.91051,148.3091 C 333.91051,147.87986 335.31175,145.05267 337.01899,142.0276 C 338.72624,139.00253 340.68836,134.91592 341.38592,132.93879 C 342.08349,130.96166 344.0604,127.13345 345.77436,124.4308 C 347.48834,121.72816 348.70116,119.33361 348.47412,119.10658 C 347.42284,118.0553 336.87377,124.63712 322.81032,135.12225 C 303.49231,149.52497 294.84335,153.86995 285.5193,153.86995 L 278.83983,153.86995 L 270.25655,140.61856 C 256.9773,120.13309 256.92132,120.06646 252.17573,116.92312 C 246.92606,113.44589 242.6389,112.68541 230.40561,113.05096 L 221.4136,113.31986 L 208.40961,107.23197 C 195.96343,101.40408 176.39909,97.568037 171.72092,97.530067 z " style="fill:#00aa00"/>
    </clipPath>
    <linearGradient inkscape:collect="always" id="linearGradient2618">
      <stop style="stop-color:#55ff99;stop-opacity:1;" offset="0" id="stop2620"/>
      <stop style="stop-color:#55ff99;stop-opacity:0;" offset="1" id="stop2622"/>
    </linearGradient>
    <linearGradient inkscape:collect="always" xlink:href="#linearGradient2618" id="linearGradient9353" gradientUnits="userSpaceOnUse" x1="303.56097" y1="191.8215" x2="312.57849" y2="203.24588"/>
    <filter inkscape:collect="always" id="filter5402">
      <feGaussianBlur inkscape:collect="always" stdDeviation="1.1664792" id="feGaussianBlur5404"/>
    </filter>
    <clipPath clipPathUnits="userSpaceOnUse" id="clipPath2454">
      <path id="path2456" d="M 171.72092,97.530067 C 171.05262,97.524642 170.68481,97.601309 170.68835,97.755942 C 170.69864,98.205513 188.38982,101.05522 203.5479,108.35059 C 218.44421,115.51998 222.19972,120.45931 224.50057,128.84076 C 226.94877,137.75889 229.00618,142.88229 232.51378,148.80387 C 234.32609,151.86343 236.78348,157.96718 237.97783,162.36718 C 242.12145,177.6322 249.63572,192.18564 262.68434,210.23134 C 267.81715,217.32979 270.04862,221.00876 270.69755,223.68708 C 271.38771,224.68663 271.54727,224.78419 271.54727,224.78419 L 274.84936,226.40835 L 275.9895,226.74178 L 279.61427,230.51713 C 279.62107,230.52042 279.62895,230.52452 279.63578,230.52789 C 280.56067,230.98375 281.6628,232.1679 283.73381,234.45383 C 290.76528,242.21501 293.03444,247.7453 293.93049,259.32168 C 294.40759,265.48547 295.56867,271.68761 296.93141,275.36961 C 298.34483,279.18856 299.33144,284.64582 299.65268,290.37422 C 299.99748,296.52306 300.65922,299.9411 301.72858,301.16248 C 303.82531,303.55729 304.33528,302.41274 305.94493,291.8693 C 307.66191,280.62291 307.68653,268.899 306.05249,242.53158 C 304.31835,214.549 305.1142,205.87516 309.40836,205.87516 C 310.89533,205.87516 312.01021,205.1319 312.40928,203.87455 C 312.90013,202.32801 313.9207,201.87393 316.91604,201.87393 C 319.04652,201.87393 321.0992,201.37667 321.47658,200.76606 C 321.87246,200.12552 323.55499,199.87845 325.44554,200.18524 C 328.09418,200.61506 328.81472,200.35092 329.22089,198.79772 C 329.61393,197.29474 330.62466,196.8724 333.84597,196.8724 C 337.31877,196.8724 338.11053,196.47435 338.91204,194.36625 C 339.5795,192.6107 340.61329,191.87086 342.38623,191.87086 C 344.44591,191.87086 344.91388,191.38124 344.91388,189.23564 C 344.91388,186.71616 345.10098,186.62755 349.34535,187.10596 C 354.04013,187.63512 355.90651,186.66186 355.90651,183.6748 C 355.90651,182.278 356.71049,181.86779 359.4775,181.86779 C 364.28278,181.86779 366.90989,180.29646 366.90989,177.42556 C 366.90989,175.58928 367.33327,175.16969 368.80294,175.55402 C 371.41292,176.23654 374.91235,174.18593 374.91234,171.97228 C 374.91234,170.47004 375.95837,170.04851 380.83889,169.60596 C 388.0976,168.94777 388.90588,168.48534 388.90589,164.99164 C 388.90589,162.81668 389.75139,161.76372 392.90711,159.9901 C 395.10712,158.75364 396.90834,157.3095 396.90834,156.78482 C 396.90834,156.26014 400.73058,151.48511 405.40558,146.16866 C 410.08058,140.85222 413.91357,136.19217 413.91356,135.81064 C 413.91356,134.88413 404.26759,136.97196 388.41111,141.33922 C 381.26111,143.3085 374.09595,145.15257 372.49224,145.43725 C 370.88852,145.72194 369.26177,146.14673 368.87823,146.38378 C 368.4947,146.62081 361.96602,147.04791 354.3684,147.3303 C 346.7708,147.61269 339.06175,148.12757 337.23411,148.47044 C 335.40646,148.8133 333.91051,148.73834 333.91051,148.3091 C 333.91051,147.87986 335.31175,145.05267 337.01899,142.0276 C 338.72624,139.00253 340.68836,134.91592 341.38592,132.93879 C 342.08349,130.96166 344.0604,127.13345 345.77436,124.4308 C 347.48834,121.72816 348.70116,119.33361 348.47412,119.10658 C 347.42284,118.0553 336.87377,124.63712 322.81032,135.12225 C 303.49231,149.52497 294.84335,153.86995 285.5193,153.86995 L 278.83983,153.86995 L 270.25655,140.61856 C 256.9773,120.13309 256.92132,120.06646 252.17573,116.92312 C 246.92606,113.44589 242.6389,112.68541 230.40561,113.05096 L 221.4136,113.31986 L 208.40961,107.23197 C 195.96343,101.40408 176.39909,97.568037 171.72092,97.530067 z " style="fill:#00aa00"/>
    </clipPath>
    <linearGradient inkscape:collect="always" id="linearGradient2610">
      <stop style="stop-color:#55ff99;stop-opacity:1;" offset="0" id="stop2612"/>
      <stop style="stop-color:#55ff99;stop-opacity:0;" offset="1" id="stop2614"/>
    </linearGradient>
    <linearGradient inkscape:collect="always" xlink:href="#linearGradient2610" id="linearGradient9351" gradientUnits="userSpaceOnUse" x1="310.15195" y1="187.8669" x2="322.125" y2="201.90625"/>
    <filter inkscape:collect="always" id="filter5398">
      <feGaussianBlur inkscape:collect="always" stdDeviation="1.1664792" id="feGaussianBlur5400"/>
    </filter>
    <clipPath clipPathUnits="userSpaceOnUse" id="clipPath2458">
      <path id="path2460" d="M 171.72092,97.530067 C 171.05262,97.524642 170.68481,97.601309 170.68835,97.755942 C 170.69864,98.205513 188.38982,101.05522 203.5479,108.35059 C 218.44421,115.51998 222.19972,120.45931 224.50057,128.84076 C 226.94877,137.75889 229.00618,142.88229 232.51378,148.80387 C 234.32609,151.86343 236.78348,157.96718 237.97783,162.36718 C 242.12145,177.6322 249.63572,192.18564 262.68434,210.23134 C 267.81715,217.32979 270.04862,221.00876 270.69755,223.68708 C 271.38771,224.68663 271.54727,224.78419 271.54727,224.78419 L 274.84936,226.40835 L 275.9895,226.74178 L 279.61427,230.51713 C 279.62107,230.52042 279.62895,230.52452 279.63578,230.52789 C 280.56067,230.98375 281.6628,232.1679 283.73381,234.45383 C 290.76528,242.21501 293.03444,247.7453 293.93049,259.32168 C 294.40759,265.48547 295.56867,271.68761 296.93141,275.36961 C 298.34483,279.18856 299.33144,284.64582 299.65268,290.37422 C 299.99748,296.52306 300.65922,299.9411 301.72858,301.16248 C 303.82531,303.55729 304.33528,302.41274 305.94493,291.8693 C 307.66191,280.62291 307.68653,268.899 306.05249,242.53158 C 304.31835,214.549 305.1142,205.87516 309.40836,205.87516 C 310.89533,205.87516 312.01021,205.1319 312.40928,203.87455 C 312.90013,202.32801 313.9207,201.87393 316.91604,201.87393 C 319.04652,201.87393 321.0992,201.37667 321.47658,200.76606 C 321.87246,200.12552 323.55499,199.87845 325.44554,200.18524 C 328.09418,200.61506 328.81472,200.35092 329.22089,198.79772 C 329.61393,197.29474 330.62466,196.8724 333.84597,196.8724 C 337.31877,196.8724 338.11053,196.47435 338.91204,194.36625 C 339.5795,192.6107 340.61329,191.87086 342.38623,191.87086 C 344.44591,191.87086 344.91388,191.38124 344.91388,189.23564 C 344.91388,186.71616 345.10098,186.62755 349.34535,187.10596 C 354.04013,187.63512 355.90651,186.66186 355.90651,183.6748 C 355.90651,182.278 356.71049,181.86779 359.4775,181.86779 C 364.28278,181.86779 366.90989,180.29646 366.90989,177.42556 C 366.90989,175.58928 367.33327,175.16969 368.80294,175.55402 C 371.41292,176.23654 374.91235,174.18593 374.91234,171.97228 C 374.91234,170.47004 375.95837,170.04851 380.83889,169.60596 C 388.0976,168.94777 388.90588,168.48534 388.90589,164.99164 C 388.90589,162.81668 389.75139,161.76372 392.90711,159.9901 C 395.10712,158.75364 396.90834,157.3095 396.90834,156.78482 C 396.90834,156.26014 400.73058,151.48511 405.40558,146.16866 C 410.08058,140.85222 413.91357,136.19217 413.91356,135.81064 C 413.91356,134.88413 404.26759,136.97196 388.41111,141.33922 C 381.26111,143.3085 374.09595,145.15257 372.49224,145.43725 C 370.88852,145.72194 369.26177,146.14673 368.87823,146.38378 C 368.4947,146.62081 361.96602,147.04791 354.3684,147.3303 C 346.7708,147.61269 339.06175,148.12757 337.23411,148.47044 C 335.40646,148.8133 333.91051,148.73834 333.91051,148.3091 C 333.91051,147.87986 335.31175,145.05267 337.01899,142.0276 C 338.72624,139.00253 340.68836,134.91592 341.38592,132.93879 C 342.08349,130.96166 344.0604,127.13345 345.77436,124.4308 C 347.48834,121.72816 348.70116,119.33361 348.47412,119.10658 C 347.42284,118.0553 336.87377,124.63712 322.81032,135.12225 C 303.49231,149.52497 294.84335,153.86995 285.5193,153.86995 L 278.83983,153.86995 L 270.25655,140.61856 C 256.9773,120.13309 256.92132,120.06646 252.17573,116.92312 C 246.92606,113.44589 242.6389,112.68541 230.40561,113.05096 L 221.4136,113.31986 L 208.40961,107.23197 C 195.96343,101.40408 176.39909,97.568037 171.72092,97.530067 z " style="fill:#00aa00"/>
    </clipPath>
    <linearGradient inkscape:collect="always" id="linearGradient2602">
      <stop style="stop-color:#55ff99;stop-opacity:1;" offset="0" id="stop2604"/>
      <stop style="stop-color:#55ff99;stop-opacity:0;" offset="1" id="stop2606"/>
    </linearGradient>
    <linearGradient inkscape:collect="always" xlink:href="#linearGradient2602" id="linearGradient9349" gradientUnits="userSpaceOnUse" x1="313.66714" y1="183.03351" x2="325.53094" y2="200.36882"/>
    <filter inkscape:collect="always" id="filter5394">
      <feGaussianBlur inkscape:collect="always" stdDeviation="1.1664792" id="feGaussianBlur5396"/>
    </filter>
    <clipPath clipPathUnits="userSpaceOnUse" id="clipPath2462">
      <path id="path2464" d="M 171.72092,97.530067 C 171.05262,97.524642 170.68481,97.601309 170.68835,97.755942 C 170.69864,98.205513 188.38982,101.05522 203.5479,108.35059 C 218.44421,115.51998 222.19972,120.45931 224.50057,128.84076 C 226.94877,137.75889 229.00618,142.88229 232.51378,148.80387 C 234.32609,151.86343 236.78348,157.96718 237.97783,162.36718 C 242.12145,177.6322 249.63572,192.18564 262.68434,210.23134 C 267.81715,217.32979 270.04862,221.00876 270.69755,223.68708 C 271.38771,224.68663 271.54727,224.78419 271.54727,224.78419 L 274.84936,226.40835 L 275.9895,226.74178 L 279.61427,230.51713 C 279.62107,230.52042 279.62895,230.52452 279.63578,230.52789 C 280.56067,230.98375 281.6628,232.1679 283.73381,234.45383 C 290.76528,242.21501 293.03444,247.7453 293.93049,259.32168 C 294.40759,265.48547 295.56867,271.68761 296.93141,275.36961 C 298.34483,279.18856 299.33144,284.64582 299.65268,290.37422 C 299.99748,296.52306 300.65922,299.9411 301.72858,301.16248 C 303.82531,303.55729 304.33528,302.41274 305.94493,291.8693 C 307.66191,280.62291 307.68653,268.899 306.05249,242.53158 C 304.31835,214.549 305.1142,205.87516 309.40836,205.87516 C 310.89533,205.87516 312.01021,205.1319 312.40928,203.87455 C 312.90013,202.32801 313.9207,201.87393 316.91604,201.87393 C 319.04652,201.87393 321.0992,201.37667 321.47658,200.76606 C 321.87246,200.12552 323.55499,199.87845 325.44554,200.18524 C 328.09418,200.61506 328.81472,200.35092 329.22089,198.79772 C 329.61393,197.29474 330.62466,196.8724 333.84597,196.8724 C 337.31877,196.8724 338.11053,196.47435 338.91204,194.36625 C 339.5795,192.6107 340.61329,191.87086 342.38623,191.87086 C 344.44591,191.87086 344.91388,191.38124 344.91388,189.23564 C 344.91388,186.71616 345.10098,186.62755 349.34535,187.10596 C 354.04013,187.63512 355.90651,186.66186 355.90651,183.6748 C 355.90651,182.278 356.71049,181.86779 359.4775,181.86779 C 364.28278,181.86779 366.90989,180.29646 366.90989,177.42556 C 366.90989,175.58928 367.33327,175.16969 368.80294,175.55402 C 371.41292,176.23654 374.91235,174.18593 374.91234,171.97228 C 374.91234,170.47004 375.95837,170.04851 380.83889,169.60596 C 388.0976,168.94777 388.90588,168.48534 388.90589,164.99164 C 388.90589,162.81668 389.75139,161.76372 392.90711,159.9901 C 395.10712,158.75364 396.90834,157.3095 396.90834,156.78482 C 396.90834,156.26014 400.73058,151.48511 405.40558,146.16866 C 410.08058,140.85222 413.91357,136.19217 413.91356,135.81064 C 413.91356,134.88413 404.26759,136.97196 388.41111,141.33922 C 381.26111,143.3085 374.09595,145.15257 372.49224,145.43725 C 370.88852,145.72194 369.26177,146.14673 368.87823,146.38378 C 368.4947,146.62081 361.96602,147.04791 354.3684,147.3303 C 346.7708,147.61269 339.06175,148.12757 337.23411,148.47044 C 335.40646,148.8133 333.91051,148.73834 333.91051,148.3091 C 333.91051,147.87986 335.31175,145.05267 337.01899,142.0276 C 338.72624,139.00253 340.68836,134.91592 341.38592,132.93879 C 342.08349,130.96166 344.0604,127.13345 345.77436,124.4308 C 347.48834,121.72816 348.70116,119.33361 348.47412,119.10658 C 347.42284,118.0553 336.87377,124.63712 322.81032,135.12225 C 303.49231,149.52497 294.84335,153.86995 285.5193,153.86995 L 278.83983,153.86995 L 270.25655,140.61856 C 256.9773,120.13309 256.92132,120.06646 252.17573,116.92312 C 246.92606,113.44589 242.6389,112.68541 230.40561,113.05096 L 221.4136,113.31986 L 208.40961,107.23197 C 195.96343,101.40408 176.39909,97.568037 171.72092,97.530067 z " style="fill:#00aa00"/>
    </clipPath>
    <linearGradient inkscape:collect="always" id="linearGradient2594">
      <stop style="stop-color:#55ff99;stop-opacity:1;" offset="0" id="stop2596"/>
      <stop style="stop-color:#55ff99;stop-opacity:0;" offset="1" id="stop2598"/>
    </linearGradient>
    <linearGradient inkscape:collect="always" xlink:href="#linearGradient2594" id="linearGradient9347" gradientUnits="userSpaceOnUse" x1="317.18234" y1="173.80612" x2="334.75833" y2="193.57909"/>
    <filter inkscape:collect="always" id="filter5390">
      <feGaussianBlur inkscape:collect="always" stdDeviation="1.1664792" id="feGaussianBlur5392"/>
    </filter>
    <clipPath clipPathUnits="userSpaceOnUse" id="clipPath2466">
      <path id="path2468" d="M 171.72092,97.530067 C 171.05262,97.524642 170.68481,97.601309 170.68835,97.755942 C 170.69864,98.205513 188.38982,101.05522 203.5479,108.35059 C 218.44421,115.51998 222.19972,120.45931 224.50057,128.84076 C 226.94877,137.75889 229.00618,142.88229 232.51378,148.80387 C 234.32609,151.86343 236.78348,157.96718 237.97783,162.36718 C 242.12145,177.6322 249.63572,192.18564 262.68434,210.23134 C 267.81715,217.32979 270.04862,221.00876 270.69755,223.68708 C 271.38771,224.68663 271.54727,224.78419 271.54727,224.78419 L 274.84936,226.40835 L 275.9895,226.74178 L 279.61427,230.51713 C 279.62107,230.52042 279.62895,230.52452 279.63578,230.52789 C 280.56067,230.98375 281.6628,232.1679 283.73381,234.45383 C 290.76528,242.21501 293.03444,247.7453 293.93049,259.32168 C 294.40759,265.48547 295.56867,271.68761 296.93141,275.36961 C 298.34483,279.18856 299.33144,284.64582 299.65268,290.37422 C 299.99748,296.52306 300.65922,299.9411 301.72858,301.16248 C 303.82531,303.55729 304.33528,302.41274 305.94493,291.8693 C 307.66191,280.62291 307.68653,268.899 306.05249,242.53158 C 304.31835,214.549 305.1142,205.87516 309.40836,205.87516 C 310.89533,205.87516 312.01021,205.1319 312.40928,203.87455 C 312.90013,202.32801 313.9207,201.87393 316.91604,201.87393 C 319.04652,201.87393 321.0992,201.37667 321.47658,200.76606 C 321.87246,200.12552 323.55499,199.87845 325.44554,200.18524 C 328.09418,200.61506 328.81472,200.35092 329.22089,198.79772 C 329.61393,197.29474 330.62466,196.8724 333.84597,196.8724 C 337.31877,196.8724 338.11053,196.47435 338.91204,194.36625 C 339.5795,192.6107 340.61329,191.87086 342.38623,191.87086 C 344.44591,191.87086 344.91388,191.38124 344.91388,189.23564 C 344.91388,186.71616 345.10098,186.62755 349.34535,187.10596 C 354.04013,187.63512 355.90651,186.66186 355.90651,183.6748 C 355.90651,182.278 356.71049,181.86779 359.4775,181.86779 C 364.28278,181.86779 366.90989,180.29646 366.90989,177.42556 C 366.90989,175.58928 367.33327,175.16969 368.80294,175.55402 C 371.41292,176.23654 374.91235,174.18593 374.91234,171.97228 C 374.91234,170.47004 375.95837,170.04851 380.83889,169.60596 C 388.0976,168.94777 388.90588,168.48534 388.90589,164.99164 C 388.90589,162.81668 389.75139,161.76372 392.90711,159.9901 C 395.10712,158.75364 396.90834,157.3095 396.90834,156.78482 C 396.90834,156.26014 400.73058,151.48511 405.40558,146.16866 C 410.08058,140.85222 413.91357,136.19217 413.91356,135.81064 C 413.91356,134.88413 404.26759,136.97196 388.41111,141.33922 C 381.26111,143.3085 374.09595,145.15257 372.49224,145.43725 C 370.88852,145.72194 369.26177,146.14673 368.87823,146.38378 C 368.4947,146.62081 361.96602,147.04791 354.3684,147.3303 C 346.7708,147.61269 339.06175,148.12757 337.23411,148.47044 C 335.40646,148.8133 333.91051,148.73834 333.91051,148.3091 C 333.91051,147.87986 335.31175,145.05267 337.01899,142.0276 C 338.72624,139.00253 340.68836,134.91592 341.38592,132.93879 C 342.08349,130.96166 344.0604,127.13345 345.77436,124.4308 C 347.48834,121.72816 348.70116,119.33361 348.47412,119.10658 C 347.42284,118.0553 336.87377,124.63712 322.81032,135.12225 C 303.49231,149.52497 294.84335,153.86995 285.5193,153.86995 L 278.83983,153.86995 L 270.25655,140.61856 C 256.9773,120.13309 256.92132,120.06646 252.17573,116.92312 C 246.92606,113.44589 242.6389,112.68541 230.40561,113.05096 L 221.4136,113.31986 L 208.40961,107.23197 C 195.96343,101.40408 176.39909,97.568037 171.72092,97.530067 z " style="fill:#00aa00"/>
    </clipPath>
    <linearGradient inkscape:collect="always" id="linearGradient2586">
      <stop style="stop-color:#55ff99;stop-opacity:1;" offset="0" id="stop2588"/>
      <stop style="stop-color:#55ff99;stop-opacity:0;" offset="1" id="stop2590"/>
    </linearGradient>
    <linearGradient inkscape:collect="always" xlink:href="#linearGradient2586" id="linearGradient9345" gradientUnits="userSpaceOnUse" x1="327.72794" y1="172.92732" x2="342.66751" y2="190.9427"/>
    <filter inkscape:collect="always" id="filter5386">
      <feGaussianBlur inkscape:collect="always" stdDeviation="1.1664792" id="feGaussianBlur5388"/>
    </filter>
    <clipPath clipPathUnits="userSpaceOnUse" id="clipPath2470">
      <path id="path2472" d="M 171.72092,97.530067 C 171.05262,97.524642 170.68481,97.601309 170.68835,97.755942 C 170.69864,98.205513 188.38982,101.05522 203.5479,108.35059 C 218.44421,115.51998 222.19972,120.45931 224.50057,128.84076 C 226.94877,137.75889 229.00618,142.88229 232.51378,148.80387 C 234.32609,151.86343 236.78348,157.96718 237.97783,162.36718 C 242.12145,177.6322 249.63572,192.18564 262.68434,210.23134 C 267.81715,217.32979 270.04862,221.00876 270.69755,223.68708 C 271.38771,224.68663 271.54727,224.78419 271.54727,224.78419 L 274.84936,226.40835 L 275.9895,226.74178 L 279.61427,230.51713 C 279.62107,230.52042 279.62895,230.52452 279.63578,230.52789 C 280.56067,230.98375 281.6628,232.1679 283.73381,234.45383 C 290.76528,242.21501 293.03444,247.7453 293.93049,259.32168 C 294.40759,265.48547 295.56867,271.68761 296.93141,275.36961 C 298.34483,279.18856 299.33144,284.64582 299.65268,290.37422 C 299.99748,296.52306 300.65922,299.9411 301.72858,301.16248 C 303.82531,303.55729 304.33528,302.41274 305.94493,291.8693 C 307.66191,280.62291 307.68653,268.899 306.05249,242.53158 C 304.31835,214.549 305.1142,205.87516 309.40836,205.87516 C 310.89533,205.87516 312.01021,205.1319 312.40928,203.87455 C 312.90013,202.32801 313.9207,201.87393 316.91604,201.87393 C 319.04652,201.87393 321.0992,201.37667 321.47658,200.76606 C 321.87246,200.12552 323.55499,199.87845 325.44554,200.18524 C 328.09418,200.61506 328.81472,200.35092 329.22089,198.79772 C 329.61393,197.29474 330.62466,196.8724 333.84597,196.8724 C 337.31877,196.8724 338.11053,196.47435 338.91204,194.36625 C 339.5795,192.6107 340.61329,191.87086 342.38623,191.87086 C 344.44591,191.87086 344.91388,191.38124 344.91388,189.23564 C 344.91388,186.71616 345.10098,186.62755 349.34535,187.10596 C 354.04013,187.63512 355.90651,186.66186 355.90651,183.6748 C 355.90651,182.278 356.71049,181.86779 359.4775,181.86779 C 364.28278,181.86779 366.90989,180.29646 366.90989,177.42556 C 366.90989,175.58928 367.33327,175.16969 368.80294,175.55402 C 371.41292,176.23654 374.91235,174.18593 374.91234,171.97228 C 374.91234,170.47004 375.95837,170.04851 380.83889,169.60596 C 388.0976,168.94777 388.90588,168.48534 388.90589,164.99164 C 388.90589,162.81668 389.75139,161.76372 392.90711,159.9901 C 395.10712,158.75364 396.90834,157.3095 396.90834,156.78482 C 396.90834,156.26014 400.73058,151.48511 405.40558,146.16866 C 410.08058,140.85222 413.91357,136.19217 413.91356,135.81064 C 413.91356,134.88413 404.26759,136.97196 388.41111,141.33922 C 381.26111,143.3085 374.09595,145.15257 372.49224,145.43725 C 370.88852,145.72194 369.26177,146.14673 368.87823,146.38378 C 368.4947,146.62081 361.96602,147.04791 354.3684,147.3303 C 346.7708,147.61269 339.06175,148.12757 337.23411,148.47044 C 335.40646,148.8133 333.91051,148.73834 333.91051,148.3091 C 333.91051,147.87986 335.31175,145.05267 337.01899,142.0276 C 338.72624,139.00253 340.68836,134.91592 341.38592,132.93879 C 342.08349,130.96166 344.0604,127.13345 345.77436,124.4308 C 347.48834,121.72816 348.70116,119.33361 348.47412,119.10658 C 347.42284,118.0553 336.87377,124.63712 322.81032,135.12225 C 303.49231,149.52497 294.84335,153.86995 285.5193,153.86995 L 278.83983,153.86995 L 270.25655,140.61856 C 256.9773,120.13309 256.92132,120.06646 252.17573,116.92312 C 246.92606,113.44589 242.6389,112.68541 230.40561,113.05096 L 221.4136,113.31986 L 208.40961,107.23197 C 195.96343,101.40408 176.39909,97.568037 171.72092,97.530067 z " style="fill:#00aa00"/>
    </clipPath>
    <linearGradient inkscape:collect="always" id="linearGradient2578">
      <stop style="stop-color:#55ff99;stop-opacity:1;" offset="0" id="stop2580"/>
      <stop style="stop-color:#55ff99;stop-opacity:0;" offset="1" id="stop2582"/>
    </linearGradient>
    <linearGradient inkscape:collect="always" xlink:href="#linearGradient2578" id="linearGradient9343" gradientUnits="userSpaceOnUse" x1="336.07651" y1="170.73033" x2="353.2131" y2="187.25923"/>
    <filter inkscape:collect="always" id="filter5382">
      <feGaussianBlur inkscape:collect="always" stdDeviation="1.1664792" id="feGaussianBlur5384"/>
    </filter>
    <clipPath clipPathUnits="userSpaceOnUse" id="clipPath2474">
      <path id="path2476" d="M 171.72092,97.530067 C 171.05262,97.524642 170.68481,97.601309 170.68835,97.755942 C 170.69864,98.205513 188.38982,101.05522 203.5479,108.35059 C 218.44421,115.51998 222.19972,120.45931 224.50057,128.84076 C 226.94877,137.75889 229.00618,142.88229 232.51378,148.80387 C 234.32609,151.86343 236.78348,157.96718 237.97783,162.36718 C 242.12145,177.6322 249.63572,192.18564 262.68434,210.23134 C 267.81715,217.32979 270.04862,221.00876 270.69755,223.68708 C 271.38771,224.68663 271.54727,224.78419 271.54727,224.78419 L 274.84936,226.40835 L 275.9895,226.74178 L 279.61427,230.51713 C 279.62107,230.52042 279.62895,230.52452 279.63578,230.52789 C 280.56067,230.98375 281.6628,232.1679 283.73381,234.45383 C 290.76528,242.21501 293.03444,247.7453 293.93049,259.32168 C 294.40759,265.48547 295.56867,271.68761 296.93141,275.36961 C 298.34483,279.18856 299.33144,284.64582 299.65268,290.37422 C 299.99748,296.52306 300.65922,299.9411 301.72858,301.16248 C 303.82531,303.55729 304.33528,302.41274 305.94493,291.8693 C 307.66191,280.62291 307.68653,268.899 306.05249,242.53158 C 304.31835,214.549 305.1142,205.87516 309.40836,205.87516 C 310.89533,205.87516 312.01021,205.1319 312.40928,203.87455 C 312.90013,202.32801 313.9207,201.87393 316.91604,201.87393 C 319.04652,201.87393 321.0992,201.37667 321.47658,200.76606 C 321.87246,200.12552 323.55499,199.87845 325.44554,200.18524 C 328.09418,200.61506 328.81472,200.35092 329.22089,198.79772 C 329.61393,197.29474 330.62466,196.8724 333.84597,196.8724 C 337.31877,196.8724 338.11053,196.47435 338.91204,194.36625 C 339.5795,192.6107 340.61329,191.87086 342.38623,191.87086 C 344.44591,191.87086 344.91388,191.38124 344.91388,189.23564 C 344.91388,186.71616 345.10098,186.62755 349.34535,187.10596 C 354.04013,187.63512 355.90651,186.66186 355.90651,183.6748 C 355.90651,182.278 356.71049,181.86779 359.4775,181.86779 C 364.28278,181.86779 366.90989,180.29646 366.90989,177.42556 C 366.90989,175.58928 367.33327,175.16969 368.80294,175.55402 C 371.41292,176.23654 374.91235,174.18593 374.91234,171.97228 C 374.91234,170.47004 375.95837,170.04851 380.83889,169.60596 C 388.0976,168.94777 388.90588,168.48534 388.90589,164.99164 C 388.90589,162.81668 389.75139,161.76372 392.90711,159.9901 C 395.10712,158.75364 396.90834,157.3095 396.90834,156.78482 C 396.90834,156.26014 400.73058,151.48511 405.40558,146.16866 C 410.08058,140.85222 413.91357,136.19217 413.91356,135.81064 C 413.91356,134.88413 404.26759,136.97196 388.41111,141.33922 C 381.26111,143.3085 374.09595,145.15257 372.49224,145.43725 C 370.88852,145.72194 369.26177,146.14673 368.87823,146.38378 C 368.4947,146.62081 361.96602,147.04791 354.3684,147.3303 C 346.7708,147.61269 339.06175,148.12757 337.23411,148.47044 C 335.40646,148.8133 333.91051,148.73834 333.91051,148.3091 C 333.91051,147.87986 335.31175,145.05267 337.01899,142.0276 C 338.72624,139.00253 340.68836,134.91592 341.38592,132.93879 C 342.08349,130.96166 344.0604,127.13345 345.77436,124.4308 C 347.48834,121.72816 348.70116,119.33361 348.47412,119.10658 C 347.42284,118.0553 336.87377,124.63712 322.81032,135.12225 C 303.49231,149.52497 294.84335,153.86995 285.5193,153.86995 L 278.83983,153.86995 L 270.25655,140.61856 C 256.9773,120.13309 256.92132,120.06646 252.17573,116.92312 C 246.92606,113.44589 242.6389,112.68541 230.40561,113.05096 L 221.4136,113.31986 L 208.40961,107.23197 C 195.96343,101.40408 176.39909,97.568037 171.72092,97.530067 z " style="fill:#00aa00"/>
    </clipPath>
    <linearGradient inkscape:collect="always" id="linearGradient2570">
      <stop style="stop-color:#55ff99;stop-opacity:1;" offset="0" id="stop2572"/>
      <stop style="stop-color:#55ff99;stop-opacity:0;" offset="1" id="stop2574"/>
    </linearGradient>
    <linearGradient inkscape:collect="always" xlink:href="#linearGradient2570" id="linearGradient9341" gradientUnits="userSpaceOnUse" x1="344.42511" y1="162.82114" x2="364.19809" y2="182.65625"/>
    <filter inkscape:collect="always" id="filter5378">
      <feGaussianBlur inkscape:collect="always" stdDeviation="1.1664792" id="feGaussianBlur5380"/>
    </filter>
    <clipPath clipPathUnits="userSpaceOnUse" id="clipPath2478">
      <path id="path2480" d="M 171.72092,97.530067 C 171.05262,97.524642 170.68481,97.601309 170.68835,97.755942 C 170.69864,98.205513 188.38982,101.05522 203.5479,108.35059 C 218.44421,115.51998 222.19972,120.45931 224.50057,128.84076 C 226.94877,137.75889 229.00618,142.88229 232.51378,148.80387 C 234.32609,151.86343 236.78348,157.96718 237.97783,162.36718 C 242.12145,177.6322 249.63572,192.18564 262.68434,210.23134 C 267.81715,217.32979 270.04862,221.00876 270.69755,223.68708 C 271.38771,224.68663 271.54727,224.78419 271.54727,224.78419 L 274.84936,226.40835 L 275.9895,226.74178 L 279.61427,230.51713 C 279.62107,230.52042 279.62895,230.52452 279.63578,230.52789 C 280.56067,230.98375 281.6628,232.1679 283.73381,234.45383 C 290.76528,242.21501 293.03444,247.7453 293.93049,259.32168 C 294.40759,265.48547 295.56867,271.68761 296.93141,275.36961 C 298.34483,279.18856 299.33144,284.64582 299.65268,290.37422 C 299.99748,296.52306 300.65922,299.9411 301.72858,301.16248 C 303.82531,303.55729 304.33528,302.41274 305.94493,291.8693 C 307.66191,280.62291 307.68653,268.899 306.05249,242.53158 C 304.31835,214.549 305.1142,205.87516 309.40836,205.87516 C 310.89533,205.87516 312.01021,205.1319 312.40928,203.87455 C 312.90013,202.32801 313.9207,201.87393 316.91604,201.87393 C 319.04652,201.87393 321.0992,201.37667 321.47658,200.76606 C 321.87246,200.12552 323.55499,199.87845 325.44554,200.18524 C 328.09418,200.61506 328.81472,200.35092 329.22089,198.79772 C 329.61393,197.29474 330.62466,196.8724 333.84597,196.8724 C 337.31877,196.8724 338.11053,196.47435 338.91204,194.36625 C 339.5795,192.6107 340.61329,191.87086 342.38623,191.87086 C 344.44591,191.87086 344.91388,191.38124 344.91388,189.23564 C 344.91388,186.71616 345.10098,186.62755 349.34535,187.10596 C 354.04013,187.63512 355.90651,186.66186 355.90651,183.6748 C 355.90651,182.278 356.71049,181.86779 359.4775,181.86779 C 364.28278,181.86779 366.90989,180.29646 366.90989,177.42556 C 366.90989,175.58928 367.33327,175.16969 368.80294,175.55402 C 371.41292,176.23654 374.91235,174.18593 374.91234,171.97228 C 374.91234,170.47004 375.95837,170.04851 380.83889,169.60596 C 388.0976,168.94777 388.90588,168.48534 388.90589,164.99164 C 388.90589,162.81668 389.75139,161.76372 392.90711,159.9901 C 395.10712,158.75364 396.90834,157.3095 396.90834,156.78482 C 396.90834,156.26014 400.73058,151.48511 405.40558,146.16866 C 410.08058,140.85222 413.91357,136.19217 413.91356,135.81064 C 413.91356,134.88413 404.26759,136.97196 388.41111,141.33922 C 381.26111,143.3085 374.09595,145.15257 372.49224,145.43725 C 370.88852,145.72194 369.26177,146.14673 368.87823,146.38378 C 368.4947,146.62081 361.96602,147.04791 354.3684,147.3303 C 346.7708,147.61269 339.06175,148.12757 337.23411,148.47044 C 335.40646,148.8133 333.91051,148.73834 333.91051,148.3091 C 333.91051,147.87986 335.31175,145.05267 337.01899,142.0276 C 338.72624,139.00253 340.68836,134.91592 341.38592,132.93879 C 342.08349,130.96166 344.0604,127.13345 345.77436,124.4308 C 347.48834,121.72816 348.70116,119.33361 348.47412,119.10658 C 347.42284,118.0553 336.87377,124.63712 322.81032,135.12225 C 303.49231,149.52497 294.84335,153.86995 285.5193,153.86995 L 278.83983,153.86995 L 270.25655,140.61856 C 256.9773,120.13309 256.92132,120.06646 252.17573,116.92312 C 246.92606,113.44589 242.6389,112.68541 230.40561,113.05096 L 221.4136,113.31986 L 208.40961,107.23197 C 195.96343,101.40408 176.39909,97.568037 171.72092,97.530067 z " style="fill:#00aa00"/>
    </clipPath>
    <linearGradient inkscape:collect="always" id="linearGradient2562">
      <stop style="stop-color:#55ff99;stop-opacity:1;" offset="0" id="stop2564"/>
      <stop style="stop-color:#55ff99;stop-opacity:0;" offset="1" id="stop2566"/>
    </linearGradient>
    <linearGradient inkscape:collect="always" xlink:href="#linearGradient2562" id="linearGradient9339" gradientUnits="userSpaceOnUse" x1="358.48587" y1="160.62415" x2="371.66788" y2="175.90625"/>
    <filter inkscape:collect="always" x="-0.072621271" width="1.1452425" y="-0.11868787" height="1.2373757" id="filter5374">
      <feGaussianBlur inkscape:collect="always" stdDeviation="1.1664792" id="feGaussianBlur5376"/>
    </filter>
    <clipPath clipPathUnits="userSpaceOnUse" id="clipPath2482">
      <path id="path2484" d="M 171.72092,97.530067 C 171.05262,97.524642 170.68481,97.601309 170.68835,97.755942 C 170.69864,98.205513 188.38982,101.05522 203.5479,108.35059 C 218.44421,115.51998 222.19972,120.45931 224.50057,128.84076 C 226.94877,137.75889 229.00618,142.88229 232.51378,148.80387 C 234.32609,151.86343 236.78348,157.96718 237.97783,162.36718 C 242.12145,177.6322 249.63572,192.18564 262.68434,210.23134 C 267.81715,217.32979 270.04862,221.00876 270.69755,223.68708 C 271.38771,224.68663 271.54727,224.78419 271.54727,224.78419 L 274.84936,226.40835 L 275.9895,226.74178 L 279.61427,230.51713 C 279.62107,230.52042 279.62895,230.52452 279.63578,230.52789 C 280.56067,230.98375 281.6628,232.1679 283.73381,234.45383 C 290.76528,242.21501 293.03444,247.7453 293.93049,259.32168 C 294.40759,265.48547 295.56867,271.68761 296.93141,275.36961 C 298.34483,279.18856 299.33144,284.64582 299.65268,290.37422 C 299.99748,296.52306 300.65922,299.9411 301.72858,301.16248 C 303.82531,303.55729 304.33528,302.41274 305.94493,291.8693 C 307.66191,280.62291 307.68653,268.899 306.05249,242.53158 C 304.31835,214.549 305.1142,205.87516 309.40836,205.87516 C 310.89533,205.87516 312.01021,205.1319 312.40928,203.87455 C 312.90013,202.32801 313.9207,201.87393 316.91604,201.87393 C 319.04652,201.87393 321.0992,201.37667 321.47658,200.76606 C 321.87246,200.12552 323.55499,199.87845 325.44554,200.18524 C 328.09418,200.61506 328.81472,200.35092 329.22089,198.79772 C 329.61393,197.29474 330.62466,196.8724 333.84597,196.8724 C 337.31877,196.8724 338.11053,196.47435 338.91204,194.36625 C 339.5795,192.6107 340.61329,191.87086 342.38623,191.87086 C 344.44591,191.87086 344.91388,191.38124 344.91388,189.23564 C 344.91388,186.71616 345.10098,186.62755 349.34535,187.10596 C 354.04013,187.63512 355.90651,186.66186 355.90651,183.6748 C 355.90651,182.278 356.71049,181.86779 359.4775,181.86779 C 364.28278,181.86779 366.90989,180.29646 366.90989,177.42556 C 366.90989,175.58928 367.33327,175.16969 368.80294,175.55402 C 371.41292,176.23654 374.91235,174.18593 374.91234,171.97228 C 374.91234,170.47004 375.95837,170.04851 380.83889,169.60596 C 388.0976,168.94777 388.90588,168.48534 388.90589,164.99164 C 388.90589,162.81668 389.75139,161.76372 392.90711,159.9901 C 395.10712,158.75364 396.90834,157.3095 396.90834,156.78482 C 396.90834,156.26014 400.73058,151.48511 405.40558,146.16866 C 410.08058,140.85222 413.91357,136.19217 413.91356,135.81064 C 413.91356,134.88413 404.26759,136.97196 388.41111,141.33922 C 381.26111,143.3085 374.09595,145.15257 372.49224,145.43725 C 370.88852,145.72194 369.26177,146.14673 368.87823,146.38378 C 368.4947,146.62081 361.96602,147.04791 354.3684,147.3303 C 346.7708,147.61269 339.06175,148.12757 337.23411,148.47044 C 335.40646,148.8133 333.91051,148.73834 333.91051,148.3091 C 333.91051,147.87986 335.31175,145.05267 337.01899,142.0276 C 338.72624,139.00253 340.68836,134.91592 341.38592,132.93879 C 342.08349,130.96166 344.0604,127.13345 345.77436,124.4308 C 347.48834,121.72816 348.70116,119.33361 348.47412,119.10658 C 347.42284,118.0553 336.87377,124.63712 322.81032,135.12225 C 303.49231,149.52497 294.84335,153.86995 285.5193,153.86995 L 278.83983,153.86995 L 270.25655,140.61856 C 256.9773,120.13309 256.92132,120.06646 252.17573,116.92312 C 246.92606,113.44589 242.6389,112.68541 230.40561,113.05096 L 221.4136,113.31986 L 208.40961,107.23197 C 195.96343,101.40408 176.39909,97.568037 171.72092,97.530067 z " style="fill:#00aa00"/>
    </clipPath>
    <linearGradient inkscape:collect="always" id="linearGradient2546">
      <stop style="stop-color:#55ff99;stop-opacity:1;" offset="0" id="stop2548"/>
      <stop style="stop-color:#55ff99;stop-opacity:0;" offset="1" id="stop2550"/>
    </linearGradient>
    <linearGradient inkscape:collect="always" xlink:href="#linearGradient2546" id="linearGradient9337" gradientUnits="userSpaceOnUse" x1="366.39508" y1="157.54836" x2="383.09225" y2="170.125"/>
    <filter inkscape:collect="always" x="-0.05759215" width="1.1151843" y="-0.16771904" height="1.3354381" id="filter5370">
      <feGaussianBlur inkscape:collect="always" stdDeviation="1.1664792" id="feGaussianBlur5372"/>
    </filter>
    <clipPath clipPathUnits="userSpaceOnUse" id="clipPath2486">
      <path id="path2488" d="M 171.72092,97.530067 C 171.05262,97.524642 170.68481,97.601309 170.68835,97.755942 C 170.69864,98.205513 188.38982,101.05522 203.5479,108.35059 C 218.44421,115.51998 222.19972,120.45931 224.50057,128.84076 C 226.94877,137.75889 229.00618,142.88229 232.51378,148.80387 C 234.32609,151.86343 236.78348,157.96718 237.97783,162.36718 C 242.12145,177.6322 249.63572,192.18564 262.68434,210.23134 C 267.81715,217.32979 270.04862,221.00876 270.69755,223.68708 C 271.38771,224.68663 271.54727,224.78419 271.54727,224.78419 L 274.84936,226.40835 L 275.9895,226.74178 L 279.61427,230.51713 C 279.62107,230.52042 279.62895,230.52452 279.63578,230.52789 C 280.56067,230.98375 281.6628,232.1679 283.73381,234.45383 C 290.76528,242.21501 293.03444,247.7453 293.93049,259.32168 C 294.40759,265.48547 295.56867,271.68761 296.93141,275.36961 C 298.34483,279.18856 299.33144,284.64582 299.65268,290.37422 C 299.99748,296.52306 300.65922,299.9411 301.72858,301.16248 C 303.82531,303.55729 304.33528,302.41274 305.94493,291.8693 C 307.66191,280.62291 307.68653,268.899 306.05249,242.53158 C 304.31835,214.549 305.1142,205.87516 309.40836,205.87516 C 310.89533,205.87516 312.01021,205.1319 312.40928,203.87455 C 312.90013,202.32801 313.9207,201.87393 316.91604,201.87393 C 319.04652,201.87393 321.0992,201.37667 321.47658,200.76606 C 321.87246,200.12552 323.55499,199.87845 325.44554,200.18524 C 328.09418,200.61506 328.81472,200.35092 329.22089,198.79772 C 329.61393,197.29474 330.62466,196.8724 333.84597,196.8724 C 337.31877,196.8724 338.11053,196.47435 338.91204,194.36625 C 339.5795,192.6107 340.61329,191.87086 342.38623,191.87086 C 344.44591,191.87086 344.91388,191.38124 344.91388,189.23564 C 344.91388,186.71616 345.10098,186.62755 349.34535,187.10596 C 354.04013,187.63512 355.90651,186.66186 355.90651,183.6748 C 355.90651,182.278 356.71049,181.86779 359.4775,181.86779 C 364.28278,181.86779 366.90989,180.29646 366.90989,177.42556 C 366.90989,175.58928 367.33327,175.16969 368.80294,175.55402 C 371.41292,176.23654 374.91235,174.18593 374.91234,171.97228 C 374.91234,170.47004 375.95837,170.04851 380.83889,169.60596 C 388.0976,168.94777 388.90588,168.48534 388.90589,164.99164 C 388.90589,162.81668 389.75139,161.76372 392.90711,159.9901 C 395.10712,158.75364 396.90834,157.3095 396.90834,156.78482 C 396.90834,156.26014 400.73058,151.48511 405.40558,146.16866 C 410.08058,140.85222 413.91357,136.19217 413.91356,135.81064 C 413.91356,134.88413 404.26759,136.97196 388.41111,141.33922 C 381.26111,143.3085 374.09595,145.15257 372.49224,145.43725 C 370.88852,145.72194 369.26177,146.14673 368.87823,146.38378 C 368.4947,146.62081 361.96602,147.04791 354.3684,147.3303 C 346.7708,147.61269 339.06175,148.12757 337.23411,148.47044 C 335.40646,148.8133 333.91051,148.73834 333.91051,148.3091 C 333.91051,147.87986 335.31175,145.05267 337.01899,142.0276 C 338.72624,139.00253 340.68836,134.91592 341.38592,132.93879 C 342.08349,130.96166 344.0604,127.13345 345.77436,124.4308 C 347.48834,121.72816 348.70116,119.33361 348.47412,119.10658 C 347.42284,118.0553 336.87377,124.63712 322.81032,135.12225 C 303.49231,149.52497 294.84335,153.86995 285.5193,153.86995 L 278.83983,153.86995 L 270.25655,140.61856 C 256.9773,120.13309 256.92132,120.06646 252.17573,116.92312 C 246.92606,113.44589 242.6389,112.68541 230.40561,113.05096 L 221.4136,113.31986 L 208.40961,107.23197 C 195.96343,101.40408 176.39909,97.568037 171.72092,97.530067 z " style="fill:#00aa00"/>
    </clipPath>
    <linearGradient inkscape:collect="always" id="linearGradient2554">
      <stop style="stop-color:#55ff99;stop-opacity:1;" offset="0" id="stop2556"/>
      <stop style="stop-color:#55ff99;stop-opacity:0;" offset="1" id="stop2558"/>
    </linearGradient>
    <linearGradient inkscape:collect="always" xlink:href="#linearGradient2554" id="linearGradient9335" gradientUnits="userSpaceOnUse" x1="372.10727" y1="151.39676" x2="397.59244" y2="157.54836"/>
    <filter inkscape:collect="always" x="-0.020372109" width="1.0407442" y="-0.11506076" height="1.2301215" id="filter9411">
      <feGaussianBlur inkscape:collect="always" stdDeviation="0.88146883" id="feGaussianBlur9413"/>
    </filter>
    <clipPath clipPathUnits="userSpaceOnUse" id="clipPath2490">
      <path id="path2492" d="M 171.72092,97.530067 C 171.05262,97.524642 170.68481,97.601309 170.68835,97.755942 C 170.69864,98.205513 188.38982,101.05522 203.5479,108.35059 C 218.44421,115.51998 222.19972,120.45931 224.50057,128.84076 C 226.94877,137.75889 229.00618,142.88229 232.51378,148.80387 C 234.32609,151.86343 236.78348,157.96718 237.97783,162.36718 C 242.12145,177.6322 249.63572,192.18564 262.68434,210.23134 C 267.81715,217.32979 270.04862,221.00876 270.69755,223.68708 C 271.38771,224.68663 271.54727,224.78419 271.54727,224.78419 L 274.84936,226.40835 L 275.9895,226.74178 L 279.61427,230.51713 C 279.62107,230.52042 279.62895,230.52452 279.63578,230.52789 C 280.56067,230.98375 281.6628,232.1679 283.73381,234.45383 C 290.76528,242.21501 293.03444,247.7453 293.93049,259.32168 C 294.40759,265.48547 295.56867,271.68761 296.93141,275.36961 C 298.34483,279.18856 299.33144,284.64582 299.65268,290.37422 C 299.99748,296.52306 300.65922,299.9411 301.72858,301.16248 C 303.82531,303.55729 304.33528,302.41274 305.94493,291.8693 C 307.66191,280.62291 307.68653,268.899 306.05249,242.53158 C 304.31835,214.549 305.1142,205.87516 309.40836,205.87516 C 310.89533,205.87516 312.01021,205.1319 312.40928,203.87455 C 312.90013,202.32801 313.9207,201.87393 316.91604,201.87393 C 319.04652,201.87393 321.0992,201.37667 321.47658,200.76606 C 321.87246,200.12552 323.55499,199.87845 325.44554,200.18524 C 328.09418,200.61506 328.81472,200.35092 329.22089,198.79772 C 329.61393,197.29474 330.62466,196.8724 333.84597,196.8724 C 337.31877,196.8724 338.11053,196.47435 338.91204,194.36625 C 339.5795,192.6107 340.61329,191.87086 342.38623,191.87086 C 344.44591,191.87086 344.91388,191.38124 344.91388,189.23564 C 344.91388,186.71616 345.10098,186.62755 349.34535,187.10596 C 354.04013,187.63512 355.90651,186.66186 355.90651,183.6748 C 355.90651,182.278 356.71049,181.86779 359.4775,181.86779 C 364.28278,181.86779 366.90989,180.29646 366.90989,177.42556 C 366.90989,175.58928 367.33327,175.16969 368.80294,175.55402 C 371.41292,176.23654 374.91235,174.18593 374.91234,171.97228 C 374.91234,170.47004 375.95837,170.04851 380.83889,169.60596 C 388.0976,168.94777 388.90588,168.48534 388.90589,164.99164 C 388.90589,162.81668 389.75139,161.76372 392.90711,159.9901 C 395.10712,158.75364 396.90834,157.3095 396.90834,156.78482 C 396.90834,156.26014 400.73058,151.48511 405.40558,146.16866 C 410.08058,140.85222 413.91357,136.19217 413.91356,135.81064 C 413.91356,134.88413 404.26759,136.97196 388.41111,141.33922 C 381.26111,143.3085 374.09595,145.15257 372.49224,145.43725 C 370.88852,145.72194 369.26177,146.14673 368.87823,146.38378 C 368.4947,146.62081 361.96602,147.04791 354.3684,147.3303 C 346.7708,147.61269 339.06175,148.12757 337.23411,148.47044 C 335.40646,148.8133 333.91051,148.73834 333.91051,148.3091 C 333.91051,147.87986 335.31175,145.05267 337.01899,142.0276 C 338.72624,139.00253 340.68836,134.91592 341.38592,132.93879 C 342.08349,130.96166 344.0604,127.13345 345.77436,124.4308 C 347.48834,121.72816 348.70116,119.33361 348.47412,119.10658 C 347.42284,118.0553 336.87377,124.63712 322.81032,135.12225 C 303.49231,149.52497 294.84335,153.86995 285.5193,153.86995 L 278.83983,153.86995 L 270.25655,140.61856 C 256.9773,120.13309 256.92132,120.06646 252.17573,116.92312 C 246.92606,113.44589 242.6389,112.68541 230.40561,113.05096 L 221.4136,113.31986 L 208.40961,107.23197 C 195.96343,101.40408 176.39909,97.568037 171.72092,97.530067 z " style="fill:#00aa00"/>
    </clipPath>
    <filter inkscape:collect="always" id="filter6387">
      <feGaussianBlur inkscape:collect="always" stdDeviation="0.37713652" id="feGaussianBlur6389"/>
    </filter>
    <clipPath clipPathUnits="userSpaceOnUse" id="clipPath2494">
      <path id="path2496" d="M 24.780913,31.595446 C 24.112603,31.590022 23.7448,31.666688 23.748337,31.821322 C 23.758627,32.270892 41.449807,35.120603 56.607889,42.415973 C 71.504199,49.585363 75.259709,54.524693 77.560558,62.906135 C 80.008759,71.824272 82.066172,76.947669 85.573771,82.869253 C 87.386082,85.928811 89.843466,92.032559 91.037814,96.432557 C 95.181435,111.69758 102.69571,126.25102 115.74432,144.29672 C 120.87714,151.39517 123.10861,155.07414 123.75754,157.75246 C 124.4477,158.75201 124.60726,158.84957 124.60726,158.84957 L 127.90935,160.47373 L 129.04949,160.80716 L 132.67425,164.58251 C 132.68106,164.5858 132.68894,164.5899 132.69577,164.59327 C 133.62066,165.04913 134.72279,166.23328 136.7938,168.51921 C 143.82527,176.28038 146.09443,181.81068 146.99048,193.38706 C 147.46758,199.55085 148.62865,205.75299 149.9914,209.43499 C 151.40482,213.25394 152.39143,218.7112 152.71266,224.4396 C 153.05747,230.58844 153.71921,234.00647 154.78857,235.22786 C 156.8853,237.62267 157.39526,236.47812 159.00492,225.93468 C 160.7219,214.68829 160.74652,202.96438 159.11248,176.59695 C 157.37834,148.61438 158.17418,139.94054 162.46835,139.94054 C 163.95532,139.94054 165.0702,139.19728 165.46927,137.93992 C 165.96012,136.39339 166.98069,135.93931 169.97603,135.93931 C 172.10651,135.93931 174.15919,135.44205 174.53657,134.83144 C 174.93245,134.1909 176.61498,133.94383 178.50553,134.25062 C 181.15417,134.68044 181.87471,134.4163 182.28088,132.8631 C 182.67392,131.36012 183.68464,130.93778 186.90596,130.93778 C 190.37876,130.93778 191.17052,130.53973 191.97203,128.43163 C 192.63949,126.67608 193.67328,125.93624 195.44621,125.93624 C 197.5059,125.93624 197.97387,125.44662 197.97387,123.30102 C 197.97387,120.78154 198.16097,120.69293 202.40534,121.17134 C 207.10012,121.7005 208.96649,120.72724 208.96649,117.74017 C 208.96649,116.34338 209.77048,115.93317 212.53748,115.93317 C 217.34276,115.93317 219.96988,114.36184 219.96987,111.49094 C 219.96987,109.65466 220.39326,109.23507 221.86293,109.6194 C 224.47291,110.30192 227.97234,108.25131 227.97233,106.03766 C 227.97233,104.53542 229.01836,104.11389 233.89888,103.67134 C 241.15759,103.01315 241.96587,102.55072 241.96587,99.057019 C 241.96587,96.882061 242.81137,95.829103 245.9671,94.055483 C 248.1671,92.819016 249.96832,91.374877 249.96833,90.850198 C 249.96833,90.325516 253.79057,85.550489 258.46556,80.234036 C 263.14056,74.917596 266.97356,70.257546 266.97355,69.876017 C 266.97355,68.949515 257.32758,71.037337 241.4711,75.404596 C 234.3211,77.373875 227.15594,79.217947 225.55223,79.502628 C 223.94851,79.787319 222.32176,80.212114 221.93822,80.449155 C 221.55469,80.686193 215.02601,81.11329 207.42839,81.395683 C 199.83079,81.678071 192.12174,82.192948 190.2941,82.535818 C 188.46644,82.878677 186.9705,82.803716 186.97049,82.374478 C 186.97049,81.945236 188.37174,79.118052 190.07898,76.092979 C 191.78622,73.067909 193.74834,68.981297 194.44591,67.004167 C 195.14348,65.027037 197.12039,61.198827 198.83435,58.496179 C 200.54832,55.793537 201.76115,53.398992 201.53411,53.171963 C 200.48283,52.120683 189.93376,58.702504 175.87031,69.187633 C 156.5523,83.590345 147.90334,87.935325 138.57929,87.935325 L 131.89982,87.935325 L 123.31654,74.683944 C 110.03729,54.198474 109.98131,54.131838 105.23572,50.988497 C 99.986052,47.511267 95.698886,46.750791 83.465597,47.116341 L 74.473589,47.38524 L 61.469596,41.29735 C 49.023421,35.469456 29.459077,31.633416 24.780913,31.595446 z " style="fill:#00aa00"/>
    </clipPath>
    <clipPath clipPathUnits="userSpaceOnUse" id="clipPath2498">
      <path id="path2500" d="M 26.75,31.59375 C 24.808323,31.57799 23.739722,31.800734 23.75,32.25 C 23.779896,33.556162 75.179102,41.835591 119.21875,63.03125 C 162.49786,83.860892 173.40896,98.211413 180.09375,122.5625 C 187.20665,148.47288 193.18417,163.35818 203.375,180.5625 C 208.64041,189.45161 215.77999,207.18518 219.25,219.96875 C 231.2887,264.31909 253.12035,306.60204 291.03125,359.03125 C 305.9439,379.65481 312.42714,390.34351 314.3125,398.125 C 316.31766,401.02905 316.78125,401.3125 316.78125,401.3125 L 326.375,406.03125 L 329.6875,407 L 340.21875,417.96875 C 340.23853,417.9783 340.26141,417.99022 340.28125,418 C 342.96839,419.32445 346.17048,422.76481 352.1875,429.40625 C 372.61644,451.95525 379.20916,468.02273 381.8125,501.65625 C 383.19864,519.56427 386.57199,537.5837 390.53125,548.28125 C 394.63774,559.37664 397.5042,575.23194 398.4375,591.875 C 399.43927,609.73958 401.36187,619.67019 404.46875,623.21875 C 410.5605,630.17653 412.04213,626.85121 416.71875,596.21875 C 421.70719,563.54394 421.77872,529.4818 417.03125,452.875 C 411.99296,371.5756 414.30517,346.37501 426.78125,346.375 C 431.10143,346.375 434.34056,344.21557 435.5,340.5625 C 436.9261,336.06925 439.89122,334.75 448.59375,334.75 C 454.78356,334.75 460.74733,333.30529 461.84375,331.53125 C 462.99393,329.67023 467.88227,328.95242 473.375,329.84375 C 481.07024,331.09253 483.16368,330.32511 484.34375,325.8125 C 485.48567,321.44581 488.42218,320.21876 497.78125,320.21875 C 507.87098,320.21875 510.17133,319.0623 512.5,312.9375 C 514.43921,307.837 517.44274,305.68751 522.59375,305.6875 C 528.57788,305.6875 529.93749,304.26497 529.9375,298.03125 C 529.9375,290.71126 530.48108,290.45382 542.8125,291.84375 C 556.45252,293.38117 561.875,290.55348 561.875,281.875 C 561.875,277.8168 564.21086,276.625 572.25,276.625 C 586.21106,276.625 593.84377,272.05972 593.84375,263.71875 C 593.84375,258.38368 595.07384,257.16462 599.34375,258.28125 C 606.92667,260.26422 617.09377,254.30646 617.09375,247.875 C 617.09375,243.51046 620.13284,242.28577 634.3125,241 C 655.40165,239.08772 657.74998,237.7442 657.75,227.59375 C 657.75,221.27472 660.20648,218.2155 669.375,213.0625 C 675.76679,209.47012 680.99998,205.27438 681,203.75 C 681,202.22561 692.10497,188.35245 705.6875,172.90625 C 719.27005,157.46009 730.40626,143.92098 730.40625,142.8125 C 730.40625,140.12068 702.38125,146.18655 656.3125,158.875 C 635.53919,164.59646 614.72185,169.95415 610.0625,170.78125 C 605.40312,171.60838 600.67683,172.84256 599.5625,173.53125 C 598.44821,174.21993 579.48005,175.4608 557.40625,176.28125 C 535.3325,177.10169 512.93496,178.59759 507.625,179.59375 C 502.31502,180.58988 497.96876,180.37209 497.96875,179.125 C 497.96875,177.8779 502.03986,169.66392 507,160.875 C 511.96017,152.08609 517.66083,140.21302 519.6875,134.46875 C 521.71419,128.72448 527.45783,117.60216 532.4375,109.75 C 537.4172,101.89786 540.9409,94.94085 540.28125,94.28125 C 537.22691,91.226905 506.57809,110.34945 465.71875,140.8125 C 409.59302,182.65753 384.4647,195.28125 357.375,195.28125 L 337.96875,195.28125 L 313.03125,156.78125 C 274.45027,97.26363 274.28763,97.070028 260.5,87.9375 C 245.24783,77.834903 232.79208,75.625449 197.25,76.6875 L 171.125,77.46875 L 133.34375,59.78125 C 97.183158,42.849134 40.341742,31.704067 26.75,31.59375 z " style="fill:#00aa00"/>
    </clipPath>
    <linearGradient inkscape:collect="always" xlink:href="#linearGradient2554" id="linearGradient2876" gradientUnits="userSpaceOnUse" x1="372.10727" y1="151.39676" x2="397.59244" y2="157.54836"/>
    <linearGradient inkscape:collect="always" xlink:href="#linearGradient2546" id="linearGradient2878" gradientUnits="userSpaceOnUse" x1="366.39508" y1="157.54836" x2="383.09225" y2="170.125"/>
    <linearGradient inkscape:collect="always" xlink:href="#linearGradient2562" id="linearGradient2880" gradientUnits="userSpaceOnUse" x1="358.48587" y1="160.62415" x2="371.66788" y2="175.90625"/>
    <linearGradient inkscape:collect="always" xlink:href="#linearGradient2570" id="linearGradient2882" gradientUnits="userSpaceOnUse" x1="344.42511" y1="162.82114" x2="364.19809" y2="182.65625"/>
    <linearGradient inkscape:collect="always" xlink:href="#linearGradient2578" id="linearGradient2884" gradientUnits="userSpaceOnUse" x1="336.07651" y1="170.73033" x2="353.2131" y2="187.25923"/>
    <linearGradient inkscape:collect="always" xlink:href="#linearGradient2586" id="linearGradient2886" gradientUnits="userSpaceOnUse" x1="327.72794" y1="172.92732" x2="342.66751" y2="190.9427"/>
    <linearGradient inkscape:collect="always" xlink:href="#linearGradient2594" id="linearGradient2888" gradientUnits="userSpaceOnUse" x1="317.18234" y1="173.80612" x2="334.75833" y2="193.57909"/>
    <linearGradient inkscape:collect="always" xlink:href="#linearGradient2602" id="linearGradient2890" gradientUnits="userSpaceOnUse" x1="313.66714" y1="183.03351" x2="325.53094" y2="200.36882"/>
    <linearGradient inkscape:collect="always" xlink:href="#linearGradient2610" id="linearGradient2892" gradientUnits="userSpaceOnUse" x1="310.15195" y1="187.8669" x2="322.125" y2="201.90625"/>
    <linearGradient inkscape:collect="always" xlink:href="#linearGradient2618" id="linearGradient2894" gradientUnits="userSpaceOnUse" x1="303.56097" y1="191.8215" x2="312.57849" y2="203.24588"/>
    <linearGradient inkscape:collect="always" xlink:href="#linearGradient2690" id="linearGradient2896" gradientUnits="userSpaceOnUse" x1="479.95184" y1="162.77159" x2="468.68195" y2="139.26588"/>
    <linearGradient inkscape:collect="always" xlink:href="#linearGradient14411" id="linearGradient2898" gradientUnits="userSpaceOnUse" x1="240.38437" y1="115.89909" x2="241.53912" y2="121.17792"/>
  </defs>
  <sodipodi:namedview inkscape:document-units="mm" id="base" pagecolor="#ffffff" bordercolor="#666666" borderopacity="1.0" inkscape:pageopacity="0.0" inkscape:pageshadow="2" inkscape:zoom="1.4075635" inkscape:cx="249.31886" inkscape:cy="169.49156" inkscape:current-layer="layer1" showguides="true" inkscape:guide-bbox="true" inkscape:window-width="1280" inkscape:window-height="753" inkscape:window-x="-4" inkscape:window-y="-4"/>
  <metadata id="metadata4">
    <rdf:RDF>
      <cc:Work rdf:about="">
        <dc:format>image/svg+xml</dc:format>
        <dc:type rdf:resource="http://purl.org/dc/dcmitype/StillImage"/>
      </cc:Work>
    </rdf:RDF>
  </metadata>
  <g inkscape:label="Layer 1" inkscape:groupmode="layer" id="layer1" transform="translate(-13.374753,-45.615683)">
    <g id="g9313" transform="matrix(0.5524515,0,0,0.551186,7.4678086,-4.5852229)" inkscape:export-filename="D:\Bilder\inkscape\PerfectOS_Version2.png" inkscape:export-xdpi="82.019173" inkscape:export-ydpi="82.019173">
      <path transform="translate(-13.057685,59.485009)" clip-path="url(#clipPath2498)" id="path2255" d="M 26.75,31.59375 C 24.808323,31.57799 23.739722,31.800734 23.75,32.25 C 23.779896,33.556162 75.179102,41.835591 119.21875,63.03125 C 162.49786,83.860892 173.40896,98.211413 180.09375,122.5625 C 187.20665,148.47288 193.18417,163.35818 203.375,180.5625 C 208.64041,189.45161 215.77999,207.18518 219.25,219.96875 C 231.2887,264.31909 253.12035,306.60204 291.03125,359.03125 C 305.9439,379.65481 312.42714,390.34351 314.3125,398.125 C 316.31766,401.02905 316.78125,401.3125 316.78125,401.3125 L 326.375,406.03125 L 329.6875,407 L 340.21875,417.96875 C 340.23853,417.9783 340.26141,417.99022 340.28125,418 C 342.96839,419.32445 346.17048,422.76481 352.1875,429.40625 C 372.61644,451.95525 379.20916,468.02273 381.8125,501.65625 C 383.19864,519.56427 386.57199,537.5837 390.53125,548.28125 C 394.63774,559.37664 397.5042,575.23194 398.4375,591.875 C 399.43927,609.73958 401.36187,619.67019 404.46875,623.21875 C 410.5605,630.17653 412.04213,626.85121 416.71875,596.21875 C 421.70719,563.54394 421.77872,529.4818 417.03125,452.875 C 411.99296,371.5756 414.30517,346.37501 426.78125,346.375 C 431.10143,346.375 434.34056,344.21557 435.5,340.5625 C 436.9261,336.06925 439.89122,334.75 448.59375,334.75 C 454.78356,334.75 460.74733,333.30529 461.84375,331.53125 C 462.99393,329.67023 467.88227,328.95242 473.375,329.84375 C 481.07024,331.09253 483.16368,330.32511 484.34375,325.8125 C 485.48567,321.44581 488.42218,320.21876 497.78125,320.21875 C 507.87098,320.21875 510.17133,319.0623 512.5,312.9375 C 514.43921,307.837 517.44274,305.68751 522.59375,305.6875 C 528.57788,305.6875 529.93749,304.26497 529.9375,298.03125 C 529.9375,290.71126 530.48108,290.45382 542.8125,291.84375 C 556.45252,293.38117 561.875,290.55348 561.875,281.875 C 561.875,277.8168 564.21086,276.625 572.25,276.625 C 586.21106,276.625 593.84377,272.05972 593.84375,263.71875 C 593.84375,258.38368 595.07384,257.16462 599.34375,258.28125 C 606.92667,260.26422 617.09377,254.30646 617.09375,247.875 C 617.09375,243.51046 620.13284,242.28577 634.3125,241 C 655.40165,239.08772 657.74998,237.7442 657.75,227.59375 C 657.75,221.27472 660.20648,218.2155 669.375,213.0625 C 675.76679,209.47012 680.99998,205.27438 681,203.75 C 681,202.22561 692.10497,188.35245 705.6875,172.90625 C 719.27005,157.46009 730.40626,143.92098 730.40625,142.8125 C 730.40625,140.12068 702.38125,146.18655 656.3125,158.875 C 635.53919,164.59646 614.72185,169.95415 610.0625,170.78125 C 605.40312,171.60838 600.67683,172.84256 599.5625,173.53125 C 598.44821,174.21993 579.48005,175.4608 557.40625,176.28125 C 535.3325,177.10169 512.93496,178.59759 507.625,179.59375 C 502.31502,180.58988 497.96876,180.37209 497.96875,179.125 C 497.96875,177.8779 502.03986,169.66392 507,160.875 C 511.96017,152.08609 517.66083,140.21302 519.6875,134.46875 C 521.71419,128.72448 527.45783,117.60216 532.4375,109.75 C 537.4172,101.89786 540.9409,94.94085 540.28125,94.28125 C 537.22691,91.226905 506.57809,110.34945 465.71875,140.8125 C 409.59302,182.65753 384.4647,195.28125 357.375,195.28125 L 337.96875,195.28125 L 313.03125,156.78125 C 274.45027,97.26363 274.28763,97.070028 260.5,87.9375 C 245.24783,77.834903 232.79208,75.625449 197.25,76.6875 L 171.125,77.46875 L 133.34375,59.78125 C 97.183158,42.849134 40.341742,31.704067 26.75,31.59375 z " style="fill:#00aa00;stroke:#000000;stroke-width:3.98681903;stroke-miterlimit:4;stroke-dasharray:none;stroke-opacity:1"/>
      <path clip-path="url(#clipPath2494)" sodipodi:nodetypes="ccsssscccssssc" transform="matrix(2.9053577,0,0,2.9053577,-58.3051,-0.717314)" id="path2251" d="M 76.72196,58.30599 L 76.84696,59.55599 C 77.22549,60.51374 77.54963,61.53537 77.84696,62.61849 C 80.29516,71.53663 82.3706,76.66565 85.87821,82.58724 C 87.69052,85.6468 90.12135,91.74974 91.31571,96.14974 C 95.45933,111.41476 102.98584,125.94778 116.03446,143.99349 C 122.32521,152.69333 124.57752,155.5579 124.57751,158.43629 C 126.31487,159.23087 132.22109,163.74806 137.09696,168.24349 C 142.20497,173.8816 144.77858,178.34798 146.15946,184.80599 C 146.34728,182.36859 146.50598,178.53954 145.94071,175.52474 C 145.06813,170.87098 141.28922,164.74812 139.25321,155.14974 C 137.21719,145.55137 125.87322,130.15188 116.56571,115.89974 C 107.25819,101.64761 102.61846,87.07975 95.34696,73.11849 C 88.07547,59.15722 76.72196,58.30599 76.72196,58.30599 z " style="fill:#ffffff;filter:url(#filter6387)"/>
      <path clip-path="url(#clipPath2490)" transform="matrix(2.9053577,0,0,2.9053577,-485.21839,-192.28097)" id="path3253" d="M 280.52849,156.33877 C 283.51785,161.3735 285.56321,163.57619 286.19255,163.41885 C 286.82189,163.26152 342.99052,151.77606 351.32928,151.30405 C 359.66804,150.83205 367.06279,148.31468 367.06279,148.31468 C 367.06279,148.31468 357.62269,147.84268 351.80129,148.31468 C 345.97989,148.78669 280.05648,156.33877 280.52849,156.33877 z " style="opacity:0.60384611;fill:#00d400;fill-rule:evenodd;stroke:none;stroke-width:1px;stroke-linecap:butt;stroke-linejoin:miter;stroke-opacity:1;filter:url(#filter9411)"/>
      <path clip-path="url(#clipPath2486)" transform="matrix(2.9053577,0,0,2.9053577,-485.21839,-192.28097)" sodipodi:nodetypes="cccsscc" id="path3290" d="M 364.34375,149.09375 C 363.99138,149.18887 363.56491,149.30338 363.15625,149.40625 L 389.875,162.15625 C 390.49113,161.46419 391.45258,160.81701 392.90625,160 C 395.10625,158.76353 396.90624,157.30593 396.90625,156.78125 C 396.90625,156.25657 398.98951,153.56278 403.66452,148.24633 C 396.28432,149.92803 377.74794,152.21822 364.34375,149.09375 z " style="fill:url(#linearGradient9335);fill-opacity:1;fill-rule:evenodd;stroke:none;stroke-width:1px;stroke-linecap:butt;stroke-linejoin:miter;stroke-opacity:1;filter:url(#filter5370)"/>
      <path clip-path="url(#clipPath2482)" transform="matrix(2.9053577,0,0,2.9053577,-485.21839,-192.28097)" id="path3288" d="M 358.15625,150.46875 C 357.76014,150.53837 357.3806,150.62294 356.96875,150.6875 L 376.90625,170.125 C 377.80179,169.91733 379.07049,169.78579 380.84375,169.625 C 388.10246,168.96681 388.90624,168.4937 388.90625,165 C 388.90625,164.47976 388.97706,164.01112 389.09375,163.59375 C 381.38917,163.22035 361.14928,152.7002 358.15625,150.46875 z " style="fill:url(#linearGradient9337);fill-opacity:1;fill-rule:evenodd;stroke:none;stroke-width:1px;stroke-linecap:butt;stroke-linejoin:miter;stroke-opacity:1;filter:url(#filter5374)"/>
      <path clip-path="url(#clipPath2478)" transform="matrix(2.9053577,0,0,2.9053577,-485.21839,-192.28097)" id="path3286" d="M 348.21875,151.6875 C 347.97142,151.7216 347.70424,151.74262 347.4375,151.78125 L 367.15625,175.90625 C 367.41726,175.40466 367.91751,175.32846 368.8125,175.5625 C 371.42248,176.24502 374.90624,174.1824 374.90625,171.96875 C 374.90625,171.2831 375.14156,170.83958 375.84375,170.5 C 370.23092,170.17153 352.3621,155.62542 348.21875,151.6875 z " style="fill:url(#linearGradient9339);fill-opacity:1;fill-rule:evenodd;stroke:none;stroke-width:1px;stroke-linecap:butt;stroke-linejoin:miter;stroke-opacity:1;filter:url(#filter5378)"/>
      <path clip-path="url(#clipPath2474)" transform="matrix(2.9053577,0,0,2.9053577,-485.21839,-192.28097)" id="path3284" d="M 336.25,153.65625 C 335.92444,153.71473 335.5502,153.7838 335.21875,153.84375 L 356.21875,182.65625 C 356.64336,182.08895 357.57455,181.875 359.46875,181.875 C 364.27403,181.875 366.90624,180.30839 366.90625,177.4375 C 366.90625,176.88087 366.96674,176.47003 367.0625,176.15625 C 362.56315,175.91709 341.73391,159.57692 336.25,153.65625 z " style="fill:url(#linearGradient9341);fill-opacity:1;fill-rule:evenodd;stroke:none;stroke-width:1px;stroke-linecap:butt;stroke-linejoin:miter;stroke-opacity:1;filter:url(#filter5382)"/>
      <path clip-path="url(#clipPath2470)" transform="matrix(2.9053577,0,0,2.9053577,-485.21839,-192.28097)" id="path3282" d="M 324.90625,155.75 C 324.76064,155.77765 324.61465,155.81601 324.46875,155.84375 L 345.78125,187 C 346.40607,186.82894 347.46826,186.91361 349.34375,187.125 C 354.03853,187.65417 355.90624,186.64331 355.90625,183.65625 C 355.90625,183.45169 355.93081,183.28879 355.96875,183.125 C 350.62841,181.57214 327.88579,160.61422 324.90625,155.75 z " style="fill:url(#linearGradient9343);fill-opacity:1;fill-rule:evenodd;stroke:none;stroke-width:1px;stroke-linecap:butt;stroke-linejoin:miter;stroke-opacity:1;filter:url(#filter5386)"/>
      <path clip-path="url(#clipPath2466)" transform="matrix(2.9053577,0,0,2.9053577,-485.21839,-192.28097)" id="path3280" d="M 315,157.65625 C 314.76848,157.70139 314.60589,157.73617 314.375,157.78125 L 339.53125,193.21875 C 340.18511,192.295 341.06277,191.875 342.375,191.875 C 344.43469,191.875 344.90624,191.3956 344.90625,189.25 C 344.90625,188.37035 344.94605,187.80399 345.15625,187.4375 C 340.78689,186.08354 318.77449,162.23427 315,157.65625 z " style="fill:url(#linearGradient9345);fill-opacity:1;fill-rule:evenodd;stroke:none;stroke-width:1px;stroke-linecap:butt;stroke-linejoin:miter;stroke-opacity:1;filter:url(#filter5390)"/>
      <path clip-path="url(#clipPath2462)" transform="matrix(2.9053577,0,0,2.9053577,-485.21839,-192.28097)" id="path3278" d="M 305.28125,159.59375 C 305.16547,159.61676 305.05266,159.63335 304.9375,159.65625 L 331.15625,197.0625 C 331.81587,196.92385 332.68745,196.875 333.84375,196.875 C 337.31655,196.875 338.10474,196.48311 338.90625,194.375 C 339.02531,194.06186 339.16796,193.78156 339.3125,193.53125 C 334.65813,190.77504 307.57503,162.19858 305.28125,159.59375 z " style="fill:url(#linearGradient9347);fill-opacity:1;fill-rule:evenodd;stroke:none;stroke-width:1px;stroke-linecap:butt;stroke-linejoin:miter;stroke-opacity:1;filter:url(#filter5394)"/>
      <path clip-path="url(#clipPath2458)" transform="matrix(2.9053577,0,0,2.9053577,-485.21839,-192.28097)" id="path3276" d="M 297.96875,161.03125 C 297.93216,161.0386 297.88021,161.05517 297.84375,161.0625 L 322.78125,200.15625 C 323.50505,200.03101 324.43248,200.02441 325.4375,200.1875 C 328.08614,200.61732 328.81257,200.33444 329.21875,198.78125 C 329.36869,198.20788 329.61385,197.82595 330.03125,197.53125 C 325.12887,197.11528 298.97167,162.60114 297.96875,161.03125 z " style="fill:url(#linearGradient9349);fill-opacity:1;fill-rule:evenodd;stroke:none;stroke-width:1px;stroke-linecap:butt;stroke-linejoin:miter;stroke-opacity:1;filter:url(#filter5398)"/>
      <path clip-path="url(#clipPath2454)" transform="matrix(2.9053577,0,0,2.9053577,-485.21839,-192.28097)" id="path3274" d="M 292.03125,162.21875 C 291.99097,162.22696 291.97725,162.24189 291.9375,162.25 L 315.75,201.90625 C 316.10267,201.88571 316.47667,201.875 316.90625,201.875 C 319.03673,201.875 321.09136,201.36062 321.46875,200.75 C 321.51117,200.68137 321.58574,200.62185 321.65625,200.5625 C 321.6308,200.47294 321.67771,200.47825 321.75,200.5 C 321.8547,200.42786 321.97984,200.36805 322.125,200.3125 C 317.05612,198.17239 292.86841,163.40804 292.03125,162.21875 z " style="fill:url(#linearGradient9351);fill-opacity:1;fill-rule:evenodd;stroke:none;stroke-width:1px;stroke-linecap:butt;stroke-linejoin:miter;stroke-opacity:1;filter:url(#filter5402)"/>
      <path clip-path="url(#clipPath2450)" transform="matrix(2.9053577,0,0,2.9053577,-485.21839,-192.28097)" sodipodi:nodetypes="cssscsscc" id="path2260" d="M 288.38155,164.53218 C 288.55681,164.91665 305.34418,201.74007 307.80487,206.16931 C 307.83254,206.21911 307.87117,206.23874 307.90296,206.2674 C 307.90825,206.27218 307.93026,206.26316 307.93565,206.2674 C 308.24368,206.05797 308.5886,205.93763 308.94923,205.87504 C 309.11913,205.77679 309.26906,205.71322 309.40698,205.80965 C 309.41855,205.80953 309.42805,205.80965 309.43967,205.80965 C 310.99545,205.80965 312.16095,205.03265 312.5785,203.7171 C 308.42231,200.27781 292.32443,170.64416 288.38155,164.53218 z " style="fill:url(#linearGradient9353);fill-opacity:1;fill-rule:evenodd;stroke:none;stroke-width:1px;stroke-linecap:butt;stroke-linejoin:miter;stroke-opacity:1;filter:url(#filter5406)"/>
      <path sodipodi:nodetypes="cssssccccccc" id="path6391" d="M 303.74136,460.18055 C 303.74136,460.18055 302.76986,468.17406 305.92072,474.09498 C 307.34402,476.76956 309.44123,480.80069 312.62646,480.63305 C 315.81169,480.46541 319.83515,478.28604 321.67924,477.44785 C 323.46557,476.63589 320.50571,467.89216 317.48814,467.05393 C 314.47055,466.21571 313.29705,469.2333 313.29705,469.2333 L 316.48228,472.75381 C 315.166,473.59203 314.34231,474.43026 314.80583,475.26848 C 313.72669,473.89756 312.87432,472.18648 310.95004,472.08325 C 312.60374,470.78662 312.73881,468.73067 312.62646,466.55101 L 314.80583,466.04807 L 303.74136,460.18055 z " style="fill:#803300;fill-rule:evenodd;stroke:none;stroke-width:1px;stroke-linecap:butt;stroke-linejoin:miter;stroke-opacity:1"/>
      <path transform="translate(-13.057685,59.485009)" clip-path="url(#clipPath2446)" sodipodi:nodetypes="cssccccc" id="rect8423" d="M 26.743689,31.59719 C 24.802009,31.581431 23.737253,31.78347 23.747538,32.232737 C 23.777435,33.538899 75.221529,41.815711 119.26117,63.01137 C 151.01272,78.292942 165.26257,90.142066 173.28267,104.95747 C 183.59556,88.685494 179.17084,82.519279 173.28267,77.356574 L 171.10365,77.447367 L 133.334,59.742843 C 97.173424,42.810738 40.335446,31.707509 26.743689,31.59719 z " style="color:#000000;fill:#000000;fill-opacity:1;fill-rule:evenodd;stroke:none;stroke-width:4.80100012;stroke-linecap:round;stroke-linejoin:miter;marker:none;marker-start:none;marker-mid:none;marker-end:none;stroke-miterlimit:4;stroke-dasharray:none;stroke-dashoffset:0;stroke-opacity:1;visibility:visible;display:inline;overflow:visible;enable-background:accumulate"/>
      <path transform="matrix(2.9053577,0,0,2.9053577,-485.21839,-192.28097)" clip-path="url(#clipPath2442)" sodipodi:nodetypes="cccccccccccccc" id="path11430" d="M 249.62909,113.62553 C 258.27971,130.38612 225.01687,102.877 233.66749,119.63758 C 245.66698,122.65648 277.40282,175.73024 278.60471,181.3022 C 287.28542,192.80315 292.81999,196.61193 295.6672,214.38695 C 295.30756,221.73929 297.20632,256.07414 298.34138,263.32484 C 300.88701,269.31043 298.16276,276.22612 300.2441,283.48349 C 303.59115,285.98676 299.06949,299.58662 303.28087,297.57971 C 306.30584,289.16747 303.32381,280.86922 304.64885,274.34355 C 304.48183,266.64173 309.03532,260.53636 307.33469,253.02072 C 304.68278,244.95244 306.98377,236.11239 305.82256,227.74283 C 304.32761,220.55348 306.62806,212.37182 306.08051,205.13446 C 305.4597,198.16925 295.64253,194.43759 294.39104,187.28953 C 286.39881,173.32977 280.12931,158.77335 272.03291,144.86148 C 267.35666,136.81575 253.96057,121.86281 249.62909,113.62553 z " style="fill:#005500;fill-rule:evenodd;stroke:none;stroke-width:1px;stroke-linecap:butt;stroke-linejoin:miter;stroke-opacity:1;filter:url(#filter12434)"/>
      <path clip-path="url(#clipPath2438)" transform="matrix(1.5423504,0,0,1.5423504,-166.55021,-0.958705)" d="M 256.71192 103.08963 A 6.4980206 6.4980206 0 1 1  243.71588,103.08963 A 6.4980206 6.4980206 0 1 1  256.71192 103.08963 z" sodipodi:ry="6.4980206" sodipodi:rx="6.4980206" sodipodi:cy="103.08963" sodipodi:cx="250.2139" id="path8428" style="color:#000000;fill:#000000;fill-opacity:1;fill-rule:evenodd;stroke:none;stroke-width:2.07397652;stroke-linecap:round;stroke-linejoin:miter;marker:none;marker-start:none;marker-mid:none;marker-end:none;stroke-miterlimit:4;stroke-dasharray:none;stroke-dashoffset:0;stroke-opacity:1;visibility:visible;display:inline;overflow:visible;enable-background:accumulate" sodipodi:type="arc"/>
      <path transform="translate(-13.057685,59.485009)" sodipodi:nodetypes="cscccssssc" clip-path="url(#clipPath2434)" id="path9415" d="M 539.35774,93.971589 C 533.32523,93.667456 504.03077,112.26137 465.72508,140.82048 C 411.6399,181.14415 386.32471,194.2985 360.31507,195.20515 L 358.95319,196.11307 L 499.06409,179.98111 C 499.75739,177.67565 502.47344,168.80852 506.94485,160.88561 C 511.90502,152.0967 517.62909,140.20928 519.65579,134.46501 C 521.68248,128.72074 527.47785,117.62164 532.45752,109.76947 C 537.43721,101.91734 540.9253,94.903569 540.26567,94.243966 C 540.07478,94.053084 539.7599,93.991868 539.35774,93.971589 z " style="fill:url(#linearGradient9355);fill-opacity:1;fill-rule:evenodd;stroke:none;stroke-width:1px;stroke-linecap:butt;stroke-linejoin:miter;stroke-opacity:1"/>
      <path clip-path="url(#clipPath2430)" transform="matrix(2.7177912,0,0,2.5927468,-438.69508,-154.79686)" d="M 243.74963 119.75923 A 2.2105069 2.2105069 0 1 1  239.32862,119.75923 A 2.2105069 2.2105069 0 1 1  243.74963 119.75923 z" sodipodi:ry="2.2105069" sodipodi:rx="2.2105069" sodipodi:cy="119.75923" sodipodi:cx="241.53912" id="path13440" style="color:#000000;fill:url(#linearGradient9357);fill-opacity:1;fill-rule:evenodd;stroke:none;stroke-width:1.10099995;stroke-linecap:round;stroke-linejoin:miter;marker:none;marker-start:none;marker-mid:none;marker-end:none;stroke-miterlimit:4;stroke-dasharray:none;stroke-dashoffset:0;stroke-opacity:1;visibility:visible;display:inline;overflow:visible;enable-background:accumulate" sodipodi:type="arc"/>
      <path clip-path="url(#clipPath2426)" transform="matrix(2.1930764,0,0,1.8321197,-308.4647,-63.304741)" d="M 245.72919 120.28712 A 5.1138592 5.1138592 0 1 1  235.50147,120.28712 A 5.1138592 5.1138592 0 1 1  245.72919 120.28712 z" sodipodi:ry="5.1138592" sodipodi:rx="5.1138592" sodipodi:cy="120.28712" sodipodi:cx="240.61533" id="path15423" style="color:#000000;fill:none;fill-opacity:1;fill-rule:evenodd;stroke:#000000;stroke-width:2.89192438;stroke-linecap:round;stroke-linejoin:miter;marker:none;marker-start:none;marker-mid:none;marker-end:none;stroke-miterlimit:4;stroke-dasharray:none;stroke-dashoffset:0;stroke-opacity:1;visibility:visible;display:inline;overflow:visible;enable-background:accumulate" sodipodi:type="arc"/>
    </g>
  </g>
</svg>